<?xml version="1.0" encoding="UTF-8" standalone="no"?>
<!DOCTYPE svg PUBLIC "-//W3C//DTD SVG 1.1//EN" "http://www.w3.org/Graphics/SVG/1.1/DTD/svg11.dtd">
<svg width="100%" height="100%" viewBox="0 0 3514 1185" version="1.1" xmlns="http://www.w3.org/2000/svg" xmlns:xlink="http://www.w3.org/1999/xlink" xml:space="preserve" xmlns:serif="http://www.serif.com/" style="fill-rule:evenodd;clip-rule:evenodd;stroke-linejoin:round;stroke-miterlimit:2;">
    <g transform="matrix(1,0,0,1,-15123.5,-5951.76)">
        <g id="polish---text-w--hand" serif:id="polish - text w/ hand" transform="matrix(0.991002,0,0,0.991002,2763.62,-2833.97)">
            <g id="L1" transform="matrix(1.04335,0,0,1.02671,-551.514,-235.754)">
                <path d="M12876.4,9405.58C12861.4,9408.4 12841.6,9409.45 12815.3,9407.25C12712.2,9398.6 12594.8,9405.66 12545.7,9400.53C12534.2,9399.33 12525.5,9397.24 12520.2,9394.83L12513.3,9390.71L12508.4,9385.75L12505.4,9380.25L12503.6,9374.04C12502.3,9367.18 12500.8,9350.37 12499.4,9326.84C12495,9248.92 12491.3,9093.2 12494.9,8991.37C12496.5,8944.97 12500.1,8909.14 12505.1,8894.81L12508.7,8887.1L12513.4,8881.1L12519.1,8877.08L12524.3,8875.09L12531,8874.46L12537.4,8875.66L12542.2,8878.06C12542.3,8878.04 12542.4,8878.02 12542.5,8878.01C12559.8,8875.43 12592.4,8882.05 12605.4,8882.05L12615.7,8883.76L12624.1,8888.18C12626.3,8888.87 12628.4,8889.74 12630.3,8890.82L12636.4,8895.13L12641.4,8900.7C12643.8,8903.95 12646.1,8908.08 12647.9,8913.5C12651.2,8923.56 12653.4,8940.42 12653.6,8968.88C12654.3,9062.46 12654.3,9119.34 12656.3,9156.67C12658.9,9205.2 12665,9216.08 12683.1,9238.29C12683.8,9238.59 12686.4,9239.78 12688.3,9240.27C12693.9,9241.8 12700.7,9242.56 12708.1,9242.98C12734.7,9244.48 12766.7,9241.24 12781.9,9241.54C12850.4,9242.9 12849.9,9235.04 12918.3,9237.11L12925.3,9238.07L12932.7,9241.37L12939,9247.17L12944.1,9256.53C12946.6,9263.49 12948.9,9278.44 12949.5,9310.84C12949.9,9314.44 12950.2,9318.57 12950.2,9323.01C12950.3,9329.6 12950.1,9337.14 12949.7,9344.05C12950,9359.23 12951.1,9370.99 12949.3,9379L12944.8,9390.25L12940.6,9395.74L12935.1,9400.27C12928.6,9404.5 12918.5,9407.57 12902.1,9406.15C12893.9,9406.96 12884.9,9406.6 12876.4,9405.58Z" style="fill:rgb(35,31,32);"/>
            </g>
            <g id="U1" transform="matrix(1.01507,0,0,1.00215,-217.563,-12.655)">
                <path d="M13093.8,9317.09C13068.1,9285.62 13050.5,9244.72 13048.5,9192.65C13043.8,9072.81 13036.8,9007.16 13037.8,8967.52C13038.2,8952.66 13039.8,8940.84 13042.6,8931C13041.1,8921.76 13041.9,8911.49 13046.2,8902.11C13051.1,8891.73 13060.1,8881.89 13076.4,8876.24C13084.4,8873.44 13093,8871.56 13101.6,8870.44C13109.2,8865.23 13118.6,8862.57 13129.2,8862.77C13140,8862.98 13152.5,8866.79 13164.4,8873.66C13172.4,8875.43 13179.7,8877.6 13185.8,8879.96C13196,8883.89 13203.4,8888.66 13207.6,8892.78L13212.8,8899.29L13215.5,8905.99C13221.7,8930.14 13220.5,8955.62 13217,8986.79C13216.8,8988.23 13216.6,8989.68 13216.4,8991.15C13218.2,9035.15 13215.6,9080.02 13214.7,9121.17C13216.3,9141.12 13218.4,9164.94 13219.4,9169.95C13230.3,9221.96 13286.3,9208.39 13306.8,9194.91C13320.8,9185.65 13327.9,9164.9 13333.3,9142.5C13335.7,9132.82 13337.5,9122.76 13339,9112.76C13338.9,9108.83 13338.8,9104.84 13338.7,9100.77C13335.4,9065.68 13328.6,9027.35 13323.9,8993.68C13318.5,8956.09 13316.1,8923.64 13320.7,8905.04L13322.8,8899.19L13326.9,8893.25L13332.3,8888.72L13340.4,8884.75C13342.4,8884.06 13344.8,8883.34 13348,8882.61C13350.7,8880.37 13354,8878.83 13357.6,8878.2C13418.2,8867.49 13450.1,8877.32 13467.3,8894.95C13478.9,8906.73 13485.1,8922.8 13487.6,8942.54C13488.2,8947.25 13488.6,8952.21 13488.9,8957.4C13489.2,8958.44 13489.4,8959.5 13489.7,8960.58C13496,8984.71 13497.7,9016.34 13501.9,9056.74C13507.6,9112.22 13514.4,9180.38 13490.4,9245.4C13489.2,9254.4 13487.8,9263.23 13486,9271.82C13472.3,9339.02 13440.1,9391.13 13379.8,9400.56C13254.9,9420.11 13183.5,9407.46 13139.5,9374.4C13119.8,9359.52 13105.2,9340.25 13093.8,9317.09Z" style="fill:rgb(35,31,32);"/>
            </g>
            <g id="D1" transform="matrix(1.04188,0,0,1.01914,-605.219,-168.37)">
                <path d="M13607,9385.85C13601.3,9380.05 13597.7,9372.45 13595.9,9362.54C13590.6,9334.54 13586.1,8955.58 13586.3,8951.08C13587.5,8928.58 13592.1,8917.7 13599.6,8909.81L13599.7,8908.67L13601.3,8902.53L13604.4,8896.36L13612.5,8887.81C13615.1,8885.81 13618.4,8883.79 13622.6,8881.93C13635.9,8876.15 13663.3,8871.01 13719.5,8873.19C13733.5,8873.73 13745.5,8874.28 13756.1,8874.95L13762.2,8873.02C13763.8,8872.7 13766,8872.43 13768.7,8872.3C13775.2,8871.98 13786.3,8872.5 13800.4,8874.59C13851,8882.05 13943.1,8909.86 13997.2,8982.91C14013.5,9004.95 14026.6,9031.08 14034,9062.05C14038.4,9075.67 14041.3,9089.6 14042.7,9103.69C14046.1,9135.81 14041.9,9168.98 14031.6,9201.41C14012.6,9284.94 13978.6,9335.57 13941.9,9366.07C13920.3,9383.98 13897.7,9395.11 13876,9401.7C13874.9,9402.16 13873.7,9402.51 13872.5,9402.76C13837.4,9412.71 13805.3,9410.93 13785.3,9407.17C13784,9406.94 13782.8,9406.69 13781.6,9406.43C13770.8,9406.51 13763.9,9406.34 13759.2,9406.13C13749.1,9406.54 13740.1,9406.62 13732.8,9406.37C13701.4,9406.78 13643.7,9403.04 13627.8,9403.04C13618.8,9403.03 13610.8,9397.26 13607.9,9388.69C13607.6,9387.68 13607.3,9386.74 13607,9385.85ZM13847.7,9043.53C13842.8,9040.79 13837.4,9038.58 13831.9,9036.8C13816,9031.73 13798.3,9030.21 13782.1,9031.46C13770.2,9040.58 13757.3,9054.75 13754.4,9078.74C13752.7,9092.77 13750.7,9105.24 13748.8,9116.64C13748.1,9147.19 13748.1,9177.87 13750.1,9202.04C13750.9,9211.24 13752,9219.39 13753.5,9226.02C13753.5,9226.08 13753.5,9226.13 13753.5,9226.19C13753.7,9226.57 13753.9,9226.94 13754.1,9227.32C13757.6,9229.33 13761.9,9231.21 13767.2,9233.33C13785.5,9232.69 13807.3,9223.15 13826.9,9208.79C13867.5,9178.99 13898.7,9124.94 13868.6,9064.28C13867,9061.01 13865,9058.04 13862.7,9055.35C13858.2,9050.94 13853.2,9046.98 13847.7,9043.53Z" style="fill:rgb(35,31,32);"/>
            </g>
            <g id="Z1" transform="matrix(0.967653,0,0,1.01056,437.529,-94.203)">
                <path d="M14115.9,9394.77C14114.6,9391.84 14114,9388.59 14114.2,9385.19C14114.5,9379.72 14116.5,9347.16 14124.9,9317.49C14126.9,9310.14 14137.4,9295.68 14153.1,9280.02C14182.1,9251.26 14228.6,9213.22 14237.5,9205.72C14264.1,9183.49 14304.9,9143.54 14336.5,9106.94C14337.4,9103.38 14338,9099.8 14338.2,9096.26C14338.6,9087.66 14337.9,9082.1 14335.2,9078.6C14334.7,9077.91 14334.1,9077.33 14333.5,9076.84C14302.8,9082.26 14272.5,9087.07 14245.5,9090.53C14206.7,9095.48 14174.1,9097.58 14154.7,9095.4C14140.7,9093.83 14131.4,9089.3 14126.5,9084.69L14123.2,9080.88L14120.5,9075.45C14119.6,9072.84 14118.5,9067.04 14117.9,9058.92C14116.2,9036.03 14116.5,8987.7 14119.1,8957.74L14118.1,8947.81L14118.9,8942.12L14120.8,8936.49C14125.2,8926.44 14138.4,8911.75 14176.7,8907.22C14274,8895.69 14331.8,8889.11 14366.6,8885.19C14384.8,8882.6 14403.3,8880.23 14421.8,8878.24C14422.2,8878.11 14422.6,8877.97 14422.9,8877.82C14427.2,8876.07 14431.7,8875.82 14435.8,8876.81C14479.7,8872.56 14523.2,8870.62 14562.3,8872.96L14568.8,8874.39L14575.4,8878.31C14577.6,8880.22 14582.1,8885.32 14586.7,8893.77C14602,8922.18 14627.8,9000.24 14575.8,9075.02C14529.2,9141.9 14495.9,9181.66 14466.3,9212.82C14463.9,9217.86 14461.9,9223.14 14461,9227.98C14459.9,9234.17 14459.3,9240.66 14464.2,9244.82C14468.8,9244.15 14473.9,9243.36 14479.3,9242.43C14486.7,9241.17 14538.6,9232.43 14572.1,9233.88C14577.8,9234.12 14583.2,9236.69 14587,9240.98C14590.7,9245.28 14592.6,9250.92 14592.1,9256.62C14592,9257.67 14592,9258.7 14591.9,9259.72C14593.6,9262.04 14594.8,9264.75 14595.4,9267.73C14608,9327.5 14595.2,9327.14 14591,9387.88C14590.3,9398.89 14581.1,9407.43 14570.1,9407.43C14566.8,9407.43 14558.5,9406.64 14528.2,9405.98C14517.9,9407.98 14505.9,9409.12 14492.1,9409.19C14483.2,9409.23 14444.1,9409.43 14395.1,9409.71C14372,9410.88 14342.2,9412.09 14303.9,9413.32C14287.6,9413.85 14272.9,9414.06 14259.5,9414.06C14248.7,9415.06 14223.3,9414.27 14170.4,9411.3C14164.3,9411.37 14159.1,9411.44 14155.3,9411.51C14152.5,9411.56 14149.9,9411.63 14148.8,9411.66C14145.6,9412.02 14142.3,9411.65 14139.1,9410.45L14137.3,9409.37C14136.4,9409.32 14135.5,9409.26 14134.6,9409.21C14127.1,9408.76 14120.4,9404.36 14117.1,9397.67C14116.6,9396.73 14116.2,9395.76 14115.9,9394.77Z" style="fill:rgb(35,31,32);"/>
            </g>
            <g id="K1" transform="matrix(1.01642,0,0,0.988684,-259.798,104.609)">
                <path d="M14823.9,9304.48C14823,9333.16 14821.7,9362.64 14819.8,9392.46C14819.1,9403.86 14809.4,9412.6 14798,9412.12C14707.3,9408.33 14688.7,9407.75 14684.4,9406.96L14676.6,9404.16L14672.3,9400.95L14669.1,9396.96L14666,9389.09C14665.7,9387.63 14665.3,9381.57 14665.1,9371.75C14664.1,9310.5 14665.5,9067.43 14667.6,8956.49C14665.9,8948.15 14664.2,8935.64 14665.4,8922.77C14665.9,8916.73 14667.1,8910.66 14669,8904.82C14668.6,8903.07 14668.3,8901.22 14668.3,8899.32C14668.3,8894.15 14670.2,8889.41 14673.3,8889.48C14675.5,8886.3 14678.5,8883.83 14682,8882.29C14682.7,8881.57 14683.4,8880.86 14684.1,8880.17C14688.9,8875.45 14699.9,8870.14 14714.3,8867.03C14738.7,8861.75 14774.2,8860.15 14784.1,8861.75C14796.6,8863.74 14805.3,8868.59 14811.7,8874.56C14813.7,8876.43 14815.5,8878.44 14817.1,8880.57C14817.1,8880.57 14817.1,8880.58 14817.1,8880.58L14818,8880.92L14822,8883.74L14826.3,8888.81L14829,8894.35C14830.4,8898.43 14831.5,8907.06 14831.7,8918.86C14832.1,8937.28 14831.1,8966.03 14831.3,8994.84C14832.2,8999.91 14833,9004.48 14834,9008.59C14835.6,9014.78 14836.5,9019.53 14840,9022.09C14843.7,9024.85 14849.2,9024.56 14856.8,9024.21C14858.6,9024.13 14860.4,9022.59 14862.6,9021.2C14867.4,9018.1 14872.5,9013.82 14877.6,9009.12C14879.4,9007.38 14881.3,9005.59 14883.2,9003.78C14905.8,8975.22 14934.9,8938.74 14972.3,8891.71C14976.3,8886.66 14980.8,8882.53 14985.6,8879.2L14986.1,8877.96L14989.5,8873.2L14994.2,8869.46L15000.9,8866.96L15005.8,8866.58L15012.2,8867.41C15013.5,8867.68 15015.2,8868.03 15017,8868.44C15019.2,8868.21 15021.4,8868.06 15023.7,8867.97C15042.6,8867.24 15065.9,8872 15092.2,8875.68C15095.1,8875.66 15098.2,8875.7 15101.8,8875.83C15104.8,8875.94 15107.6,8876.67 15110.2,8877.92C15117.5,8879.04 15123.6,8883.89 15126.4,8890.73C15127.6,8893.53 15128.1,8896.48 15128,8899.39C15128.4,8901.58 15129,8905.02 15129.1,8908.29C15129.1,8917.73 15125.7,8937.01 15095.7,8979.84C15039.1,9060.71 15032.2,9074.43 14989,9144.22C14986.2,9156.69 14985.7,9168.12 14988.8,9183.98C14996.1,9196.48 15005.2,9211.3 15018.8,9231.43C15033.8,9253.71 15064.7,9294.47 15091.3,9328.16C15104.4,9341.97 15112.9,9353.57 15117.7,9360.85C15121.9,9365.88 15125.6,9370.26 15128.6,9373.78C15136.3,9382.51 15135.4,9395.79 15126.7,9403.42C15124.3,9405.46 15121.7,9406.89 15118.9,9407.73C15117,9409 15115,9409.99 15112.8,9410.63C15109.6,9411.57 15103.7,9413.41 15093.8,9414.58C15092,9415.08 15090.1,9415.35 15088.1,9415.35L15085,9415.35C15078.5,9415.74 15070.7,9415.82 15061.3,9415.35L14947.1,9415.35C14941.1,9415.35 14935.4,9412.78 14931.4,9408.3L14927.6,9404.05C14926.4,9402.62 14925.4,9401.08 14924.5,9399.45C14923.6,9398.13 14922.6,9396.75 14921.6,9395.32C14920,9394.03 14919.1,9392.96 14917.1,9390.18C14916.8,9389.78 14916.5,9389.37 14916.2,9388.95C14914.9,9387.17 14913.9,9385.27 14913.3,9383.3C14913.1,9382.71 14912.9,9382.11 14912.8,9381.51C14908.4,9374.53 14903.4,9366.49 14896.9,9357.03C14895.3,9355.54 14893.8,9353.75 14892.6,9351.69L14889.7,9346.44C14889.3,9345.72 14888.9,9344.99 14888.6,9344.25C14885.5,9339.84 14882.3,9335.2 14878.9,9330.4C14866.8,9317.38 14856.4,9306.45 14853.7,9304.28C14846,9298.14 14840.2,9295.02 14835,9295.4C14830.9,9295.69 14828.3,9298.84 14826.1,9301.52C14825.3,9302.5 14824.6,9303.5 14823.9,9304.48Z" style="fill:rgb(35,31,32);"/>
            </g>
            <g id="I1" transform="matrix(1.07719,0,0,1.02527,-1199.83,-224.281)">
                <path d="M15428,9293.76C15434.4,9292.95 15441.3,9292.1 15448.8,9291.2C15458.7,9290.01 15468.1,9295.97 15471.3,9305.44C15489.4,9360.27 15477.7,9384.27 15465.6,9394.93C15459,9400.8 15451,9403.97 15443.1,9405.39C15435.9,9406.67 15428.9,9406.1 15425.1,9406.47C15344.8,9414.18 15231.7,9406.96 15225,9405.46L15220,9403.66L15216.1,9401.2L15210.1,9394.22C15207.6,9389.87 15204.9,9379.05 15204.3,9366.43C15203.8,9357.56 15204.1,9347.75 15204.7,9339.61C15204.5,9338.55 15204.3,9337.53 15204.2,9336.56L15204.3,9328.15L15205.9,9321.65L15208.7,9316.19L15212.7,9311.39C15218,9306.24 15228,9301.19 15246.1,9302.09C15246.9,9302.13 15247.7,9302.17 15248.5,9302.21C15248.9,9301.78 15249.4,9301.34 15249.7,9300.88C15254.3,9295.5 15256.5,9287.82 15258.2,9276.58C15262.9,9244.62 15260.5,9190.96 15257.5,9095.41C15256,9049.08 15255.2,9019.86 15252.2,9000.51C15250.8,8991.02 15249.4,8984.85 15245.5,8980.62C15243.2,8978.06 15240.3,8976.26 15236.6,8974.61C15231.2,8973.56 15227.1,8972.04 15224.4,8970.51L15218.6,8966.18L15214.6,8961.09C15213.3,8958.8 15209.2,8945.67 15207.3,8930.43C15205.5,8915.45 15205.9,8898.66 15209.8,8888.94C15214,8878.33 15226,8873.08 15236.6,8877.07C15239.6,8875.75 15242.9,8875.1 15246.3,8875.27C15260.8,8876 15338.5,8879.86 15423.7,8879.63C15429.9,8878.11 15435.2,8876.43 15439.4,8875.93L15446.6,8876.2L15453.1,8878.51L15458.6,8882.57L15463,8888.42C15465.9,8893.46 15468.4,8903.87 15468.7,8916C15469.2,8933.48 15465.6,8954.54 15461.2,8962.39L15457.5,8967.5L15453.2,8971.34L15447.6,8974.17L15440.4,8975.45C15440.2,8975.45 15439.7,8975.46 15438.9,8975.46C15436.5,8976.32 15433.4,8977.35 15429.9,8978.49C15428.9,8978.81 15427.8,8979.24 15426.5,8979.73C15424.8,8983.61 15423.5,8988.44 15422.1,8993.93C15418.2,9010.49 15416,9032.15 15414.9,9056.2C15411.4,9134.5 15420,9237.07 15425.3,9278.74C15426,9284.56 15427,9290.58 15427.4,9292.8C15427.6,9293.12 15427.8,9293.44 15428,9293.76Z" style="fill:rgb(35,31,32);"/>
            </g>
            <g id="E1" transform="matrix(0.9758,0,0,0.993334,174.693,60.9202)">
                <path d="M15749.1,8993.7C15747,8977.86 15746.5,8961.13 15749.1,8936.93C15749.6,8932.88 15750.1,8929.28 15750.6,8926.06C15751.3,8908.91 15752.2,8896.92 15753.3,8891.98C15754.7,8885.91 15758.7,8881.06 15763.7,8878.3L15766.6,8875.88C15769.3,8874.18 15772.6,8872.59 15776.5,8871.24C15780.6,8869.09 15785.3,8867.87 15790.3,8867.87C15790.4,8867.87 15790.6,8867.87 15790.7,8867.87C15801,8866.22 15814.1,8865.27 15829.8,8865.03C15854.5,8864.65 15886.3,8865.76 15923.8,8867.19C15929.2,8866.91 15934.9,8866.59 15940.8,8866.25C15962.7,8864.96 16047.2,8863.58 16106.6,8867.75C16120,8868.69 16132.3,8870.07 16142.7,8871.76C16152.5,8871.65 16162.5,8871.48 16172.5,8871.25C16182.8,8871.02 16191.9,8871.18 16198.8,8873.09L16206.9,8876.34L16215,8882.51L16221,8891.39L16223.9,8901.15C16231,8946.37 16230,8945.72 16235.7,8990.58C16237.1,9001.65 16229.6,9011.89 16218.7,9013.9C16205.6,9016.3 16185.1,9018.29 16160.1,9020.02C16153.4,9022.33 16145.7,9023.99 16137,9024.94C16121,9026.68 16099.9,9025.95 16073,9024.71C16036,9026.36 15996.7,9027.9 15959.4,9029.59C15958,9030.51 15956.8,9031.55 15955.8,9032.94C15953.4,9036.56 15953,9041.93 15952.7,9050.83C15952.7,9052.83 15951.8,9055.11 15952.9,9057.74C15954.5,9061.44 15958.8,9064.97 15966.7,9070C15968.9,9071.42 15971.3,9072.87 15974,9074.37C16015,9077.58 16051.3,9079.13 16104.3,9072.56C16119.9,9070.62 16130.2,9070.59 16137.1,9071.2C16142.5,9070.19 16148,9070.74 16152.8,9072.56L16156.4,9073.07L16166.6,9079.5L16172.6,9087.62L16175.4,9096.06L16175.8,9104.93C16175.7,9105.55 16174.4,9110.49 16172.7,9116.6C16173,9126.88 16172.7,9141.59 16170.4,9161.05C16167.8,9182.33 16165.3,9193.01 16161.6,9198.59L16155,9205.97L16146.7,9211.24L16137.6,9214.13L16127.5,9215.03C16058.4,9215.31 16020.6,9214.24 15985.9,9213.34C15981.4,9213.91 15978.1,9214.36 15975.6,9214.71C15974.9,9214.81 15973.9,9214.96 15972.5,9215.15C15970.9,9216.78 15969.3,9218.53 15967.7,9220.38C15960.8,9228.6 15954.1,9239.05 15954.6,9251.24C15954.8,9257.09 15956.9,9263.16 15961,9269.51C15962.4,9269.7 15963.7,9269.89 15965.1,9270.1C15975.5,9271.71 15986.9,9272.66 15998.9,9273.92C16006,9273.19 16012.3,9272.21 16017.4,9270.88C16029.2,9267.79 16064.5,9257.96 16165.9,9265.87C16173.2,9265.23 16180.4,9264.63 16187.3,9264.08L16193.7,9264.26L16199.9,9265.87L16205.4,9268.63L16209.8,9272.07C16214.8,9276.7 16219.4,9284.39 16222.5,9294.75C16229.5,9319.05 16229.2,9363.99 16230.1,9386.99C16230.4,9396.94 16223.8,9405.77 16214.1,9408.16C16128.6,9429.24 16064.6,9404.7 15958.9,9410.32C15947.6,9410.92 15847.2,9416.21 15802.9,9414.62C15791.6,9414.22 15783.2,9413.14 15779.1,9411.91L15776.7,9410.71L15772.4,9412.1L15765.2,9411.97L15759.9,9410.18L15755,9406.77L15749.8,9399.41L15748.4,9392.78C15747.5,9390.05 15747.1,9387.08 15747.4,9384.01L15748.7,9379.99C15749.6,9331.77 15747.5,9122.83 15749.1,8993.7ZM15748.7,9393.42C15749.5,9395.86 15750.7,9397.85 15752.2,9399.47C15750.7,9397.68 15749.5,9395.63 15748.7,9393.42ZM15748.4,9392.49L15747.8,9389.56C15747.9,9390.6 15748.1,9391.57 15748.4,9392.49Z" style="fill:rgb(35,31,32);"/>
            </g>
            <g id="D2" transform="matrix(1.05536,0,0,1.01657,-703.651,-154.823)">
                <path d="M12498,10035.8L12497.5,10035.4C12489.2,10028.8 12487.2,10017.1 12492.5,10008.3C12489.8,9985.88 12483.8,9933.62 12484.7,9823.15C12484.9,9802.88 12486.8,9597.9 12489.8,9544.65L12488.8,9541.68L12488.9,9534.76L12491.4,9527.93L12492.6,9526.53L12494.3,9522.46L12499.6,9516.75L12503.3,9514.55L12508.4,9512.95C12512.7,9512.16 12517,9512.77 12520.7,9514.45C12521.6,9514.38 12522.5,9514.31 12523.4,9514.24L12525.9,9512.13L12530.9,9509.55L12536.7,9507.99L12543.9,9507.69C12547.8,9507.96 12552.8,9509.14 12558.4,9510.84C12560.7,9511.51 12563.1,9512.34 12565.8,9513.07C12570.8,9512.65 12576.7,9513.06 12585.9,9513.84C12587.6,9513.49 12589.4,9513.36 12591.3,9513.48C12594.1,9513.66 12596.8,9514.39 12599.2,9515.57C12636.8,9517.6 12673.1,9520.65 12679.5,9521.19C12795.3,9530.98 12857.6,9585.38 12890.9,9637.59C12893.6,9640.64 12896.4,9643.76 12899.1,9646.96C12912.8,9663.22 12930.8,9709.82 12935.3,9765.71C12941.9,9848.35 12919.8,9950.07 12820.9,9999.51C12726.5,10046.7 12722.2,10030.1 12616.9,10044.3C12610.2,10045.2 12609.5,10045.1 12550.2,10045C12546.1,10045.3 12541.3,10045.8 12535.3,10046.7C12531.1,10047.4 12526.9,10046.8 12523.2,10045C12522,10045 12520.9,10045 12519.7,10045L12511.7,10044.1L12505.4,10041.8L12499,10037.2L12498,10035.8ZM12708.8,9895.24C12739.5,9879.74 12769.1,9854.53 12777.7,9816.17C12780,9803.59 12780.5,9789.81 12778.8,9774.79C12778.7,9774.47 12778.7,9774.14 12778.7,9773.81C12777.1,9760.69 12773.8,9746.62 12768.6,9731.61C12767.6,9728.64 12764.8,9725.69 12761.5,9722.39C12753.7,9714.58 12742.5,9706.64 12729.7,9699.37C12723,9695.6 12716,9692.03 12708.8,9688.78C12707.6,9688.38 12706.5,9687.97 12705.3,9687.57C12687.6,9681.59 12674.1,9677.95 12663.8,9675.78C12659.4,9677.59 12655.7,9679.79 12652.7,9683.42C12647.1,9690.35 12645,9701.38 12644,9719.98C12642.4,9751.52 12646.1,9800.31 12655.5,9877.91L12661,9887.46C12671.3,9893.12 12678.2,9896.52 12684.4,9897.87C12686.5,9898.11 12688.9,9898.35 12691.4,9898.57C12696.7,9898.5 12702,9897.16 12708.8,9895.24Z" style="fill:rgb(35,31,32);"/>
            </g>
            <g id="Z2" transform="matrix(0.992262,0,0,1.00652,69.6579,-63.3061)">
                <path d="M13054.4,9685.33L13052.8,9684.49L13047.6,9680.23L13042,9672.37C13040.5,9669.48 13039.3,9666.19 13038.3,9662.44C13035.5,9651.88 13031.3,9573.72 13031.5,9562.79L13032.8,9554.74L13035.9,9549.6C13037.4,9544.35 13040.9,9539.68 13046.1,9536.88C13066.1,9526.09 13113.6,9518.82 13170.8,9515.29C13267.9,9509.31 13395.1,9512.1 13447.9,9512.65C13450.4,9511.22 13453.1,9510.27 13456.1,9509.95C13455.7,9510 13455.4,9510.06 13455,9510.15L13456.9,9509.88C13457.7,9509.81 13458.6,9509.8 13459.5,9509.85C13458.9,9509.81 13458.1,9509.77 13457.1,9509.84L13462.3,9509.07L13470.8,9509.85L13476.4,9511.91C13486.2,9511.66 13495.1,9518.35 13497.4,9528.28C13497.7,9529.6 13497.8,9530.92 13497.9,9532.22C13505,9544.94 13506.6,9560.46 13502.7,9578.36C13496.9,9605.76 13476.7,9640.59 13451.1,9677.24C13416,9727.5 13371,9782.05 13347.1,9825.6C13340.4,9837.99 13335.4,9849.24 13333.6,9859.04C13332.7,9863.67 13332.1,9867.74 13334.5,9870.68C13337.2,9873.91 13340,9876.84 13342.9,9879.5C13396.7,9879.55 13438.9,9878.39 13463.5,9878.92C13479.5,9879.27 13489.8,9881.07 13494.1,9882.89L13501.3,9887.59L13504.2,9890.93L13506.7,9895.68L13508,9900.52L13508.2,9905.02C13512.5,9911.21 13513.1,9919.32 13509.9,9926.12C13506.8,9978.95 13508.5,10009.1 13504.6,10024.6C13503.1,10030.5 13500.9,10035.2 13498.3,10038.9L13494.5,10043.5L13489.8,10047.4C13483.6,10051.6 13475.4,10054.2 13463.9,10053.7C13221.2,10043.5 13145.9,10052.2 13114.6,10051.8C13101.7,10051.7 13093.8,10050.2 13087.1,10047C13081.7,10045.5 13077.1,10043.2 13072.9,10040C13064.8,10033.8 13057.8,10022.9 13052.4,10001.7C13046.4,9978.19 13050.5,9968.17 13060.6,9954.81C13066.5,9946.97 13076.5,9937.29 13089,9915.95C13139.7,9829.07 13179.4,9773.62 13195.8,9733.97C13201.7,9719.76 13204.8,9708.59 13201.4,9698.69C13200.1,9694.88 13197.9,9691.43 13194.9,9688.14C13169.9,9689.88 13137.1,9692.37 13112.3,9693.86C13090.4,9695.18 13073.7,9695.33 13070.1,9694.61L13062.7,9692.02L13056.6,9687.88L13054.4,9685.33ZM13456.1,9509.95C13456.4,9509.89 13456.8,9509.86 13457.1,9509.84L13456.9,9509.88C13456.6,9509.89 13456.3,9509.92 13456.1,9509.95ZM13041.4,9579.89C13036.7,9576.92 13033.3,9572.15 13032.1,9566.33C13033.7,9574.39 13038.2,9578.12 13041.4,9579.89ZM13136.9,9576.17C13136.9,9576.38 13136.8,9576.61 13136.8,9576.84C13137.1,9576.57 13137.4,9576.3 13137.7,9576.02C13137.4,9576.07 13137.1,9576.12 13136.9,9576.17Z" style="fill:rgb(35,31,32);"/>
            </g>
            <g id="I2" transform="matrix(1.00713,0,0,1.01811,-111.007,-167.561)">
                <path d="M13838.6,10043.4C13836,10044.4 13833.2,10044.8 13830.3,10044.7C13616.1,10036.1 13616.2,10046 13597.8,10042.9L13590.3,10040.2L13583.6,10034.5L13579.3,10027.1C13578.4,10024.9 13577.5,10022 13576.8,10018.5C13572.5,9997.42 13574.5,9946.15 13576,9940.07C13576.3,9938.92 13576.7,9937.81 13577.1,9936.76C13577.9,9934.38 13579.2,9932.13 13580.8,9930.14C13584.3,9925.79 13589.5,9923.04 13595.1,9922.5C13598.2,9922.2 13600.7,9922.1 13604,9922.06C13606.2,9921.15 13611.3,9919.09 13616.5,9916.41C13624.9,9903.54 13627.4,9892.94 13627.8,9877.11C13628.2,9859.41 13626.6,9836.45 13626.8,9801.38C13626.8,9791.1 13627.2,9710.63 13628.8,9655.47C13628.5,9652.26 13628.1,9649.34 13627.5,9646.66C13626.6,9641.86 13625.7,9638.23 13623.6,9635.61C13621.4,9632.95 13618.2,9631.72 13614.1,9630.39C13609.9,9629.95 13606.4,9629.38 13603.7,9628.66L13597.5,9625.95C13595.6,9625.51 13593.6,9625.06 13591.5,9624.6C13581,9622.27 13573.9,9612.38 13575.1,9601.69C13575.8,9595.97 13576.9,9585.07 13578,9573.34C13577.7,9567.45 13577.5,9561.53 13577.5,9556C13577.6,9542.67 13579.2,9531.43 13580.9,9526.73C13581.8,9524.25 13583.1,9522.05 13584.7,9520.16C13585.9,9517.95 13587.5,9515.98 13589.3,9514.34C13593.3,9510.1 13599,9507.7 13604.9,9507.82C13688.4,9509.48 13687.9,9509.62 13771.8,9506.5C13799.5,9505.47 13814.5,9507.85 13824.1,9509.73C13824.3,9509.76 13824.4,9509.79 13824.6,9509.83C13828.7,9508.43 13832.3,9507.74 13835.4,9507.54L13841.3,9507.69L13847.8,9509.26L13854,9512.56L13859.1,9517.17L13863.1,9523.19L13866.1,9531.61C13868.3,9540.76 13867.9,9556.78 13866.8,9579.59C13866.3,9590.38 13863.2,9598.27 13859.1,9604.36C13852.9,9613.45 13843.9,9618.9 13833.4,9622.22C13828.7,9623.74 13823.6,9624.78 13818.8,9626.04C13818.5,9626.12 13818.1,9626.22 13817.8,9626.34C13817.7,9626.42 13817.7,9626.5 13817.7,9626.59C13815.7,9632.96 13814.1,9646.15 13812.9,9663.52C13812,9683.4 13811,9703.09 13810.4,9722.44C13810.1,9737.95 13809.9,9754.23 13809.8,9770.46C13809.9,9778.09 13810.1,9785.64 13810.5,9793.1C13812.4,9835.26 13818.5,9874.35 13834.3,9907.91C13841.9,9910.28 13848.7,9912.61 13853.2,9915.15L13858.9,9919.16L13863,9923.6L13866,9928.99L13867.8,9935.74C13874.4,9993.26 13864.7,10022.1 13862.4,10029.2C13860.7,10034.5 13856.9,10038.9 13851.9,10041.4C13847.8,10043.6 13843.1,10044.2 13838.6,10043.4Z" style="fill:rgb(35,31,32);"/>
            </g>
            <g id="E11" serif:id="E1" transform="matrix(1.44333,0,0,1.45633,-915.074,-814.174)">
                <path d="M10291.8,7240.58C10290.4,7217.79 10287.4,7204.47 10285.3,7192.26C10282.8,7177.57 10281.3,7164.25 10283.8,7141.89C10285.7,7124.59 10288.5,7118.8 10291.8,7114.71L10291.8,7114.24C10291.8,7102.65 10301.2,7093.24 10312.8,7093.24C10315.4,7093.24 10317.9,7093.72 10320.2,7094.59L10321.7,7094.42C10331.8,7094.35 10356.4,7095.76 10418.8,7092.1C10434.3,7091.19 10493.8,7090.22 10535.6,7093.16C10556.5,7094.62 10573.5,7097.59 10581.1,7101.08C10589.3,7104.8 10594.2,7108.67 10597.5,7112.68L10603,7122.34L10605,7131.62C10605.5,7136.84 10604.8,7144.03 10604.4,7154.9C10603.8,7171.52 10598.6,7182.48 10590.6,7190.18C10583.2,7197.41 10572.4,7202.22 10557,7203.9C10532.8,7206.53 10492.1,7201.14 10429.5,7201.33C10426.9,7202.86 10425,7205.24 10423.7,7207.63C10420,7214.31 10419.1,7221.48 10418.9,7223C10417.9,7230.73 10421.7,7234.89 10426.4,7237.42C10462.3,7240.41 10490,7242.9 10534,7237.44C10545,7236.07 10552.2,7236.06 10557.1,7236.49C10560.9,7235.78 10564.8,7236.16 10568.2,7237.44L10570.7,7237.8L10577.9,7242.33L10582.1,7248.05L10584.1,7254L10584.4,7260.24C10584.3,7260.68 10583.4,7264.16 10582.2,7268.47C10582.4,7275.71 10582.2,7286.08 10580.5,7299.78C10578.7,7314.77 10577,7322.3 10574.3,7326.23L10569.7,7331.43L10563.9,7335.14L10557.5,7337.18L10550.3,7337.81C10485.4,7338.08 10459.7,7336.65 10426,7336.06C10424.7,7336.86 10423.4,7337.93 10422.2,7339.44C10419.4,7343.1 10417.9,7348.84 10417.9,7357.49C10417.9,7363.53 10418.3,7367.94 10420.5,7370.96C10423.7,7375.38 10429.6,7375.62 10435.9,7376.61C10443.3,7377.74 10451.3,7378.41 10459.7,7379.3C10464.8,7378.79 10469.2,7378.09 10472.8,7377.16C10481.3,7374.93 10507.2,7367.71 10582.8,7374.07C10585.8,7374.32 10588.3,7374.71 10590.3,7375.2L10596,7377.09L10601.3,7380.1L10606.3,7384.81L10609.5,7389.9L10611.7,7396.9C10612.4,7400.44 10612.3,7405.4 10612.2,7412.31C10612.2,7418.48 10613.2,7424.73 10612.7,7430.23L10611.6,7436.28L10609.1,7442.99L10607.8,7444.69C10606.7,7455.19 10597.8,7463.36 10587,7463.36L10577.2,7463.36C10572.4,7464.19 10567,7464.71 10560.8,7464.83C10437.6,7467.14 10437.7,7468.04 10427,7467.48C10381.1,7465.08 10353.2,7469.29 10329,7464.79C10325.8,7464.19 10322.8,7463.75 10320.3,7463.36L10315,7463.36C10314.7,7463.36 10314.3,7463.35 10313.9,7463.33C10313.5,7463.35 10313.2,7463.36 10312.8,7463.36C10301.2,7463.36 10291.8,7453.95 10291.8,7442.36L10291.8,7405.67C10289.2,7381.72 10286.4,7378.38 10291.5,7348.67C10291.6,7348.16 10291.7,7347.66 10291.8,7347.18L10291.8,7240.58ZM10558.3,7414.42C10558,7415.43 10557.7,7416.54 10557.5,7417.78C10557.7,7416.62 10558,7415.5 10558.3,7414.43L10558.3,7414.42Z" style="fill:rgb(35,31,32);"/>
            </g>
            <g id="Lt" transform="matrix(0.940656,0,0,1.00652,759.536,-53.8525)">
                <path d="M14662.9,9866.92C14648,9875.68 14633,9883.99 14618,9891.69C14612.3,9894.63 14605.6,9894.79 14599.7,9892.14C14593.9,9889.49 14589.6,9884.31 14588,9878.08C14579.4,9843.1 14581.3,9826.05 14580.9,9821.89C14580.6,9819.44 14580.8,9817.05 14581.4,9814.79C14581.2,9814.22 14581.1,9813.65 14580.9,9813.07C14578.8,9805.31 14581.3,9797.01 14587.4,9791.72C14595.2,9784.86 14615.7,9767.04 14645.1,9743.03C14648.8,9735.35 14652.6,9726.36 14656.1,9714.92C14654.7,9677.46 14653.6,9627.33 14653.4,9559.48C14653.1,9554.99 14653,9550.68 14653.1,9546.57L14653.3,9545.28C14653.5,9530.94 14656.9,9522.38 14661,9516.84L14665.2,9512.22L14670,9508.58L14679.7,9504.56C14687.2,9502.64 14698.4,9503.63 14713.7,9501.56C14725.1,9500.01 14776.6,9497.89 14797.9,9505.42C14801.1,9506.58 14804,9507.94 14806.3,9509.41L14812.3,9514.22L14817,9520.67L14819.8,9529.44C14820.6,9536.2 14820.3,9559.99 14819.7,9592.19C14822.6,9596.48 14825.5,9599.55 14828.6,9601.55C14830.8,9602.94 14833,9603.53 14835.2,9603.63C14860.2,9587.44 14886,9571.58 14912.3,9556.68C14918.2,9553.34 14925.3,9553.05 14931.5,9555.91C14937.7,9558.77 14942,9564.42 14943.3,9571.09C14943.6,9572.95 14944,9574.74 14944.4,9576.48L14948.4,9572.11C14949.6,9586.42 14951,9597.13 14952.2,9605.47C14952.8,9607.57 14953.4,9609.57 14953.8,9611.5C14955.2,9617.41 14956,9622.85 14956.1,9628.06C14956.2,9628.72 14956.3,9629.36 14956.3,9629.99C14957.6,9639.2 14957.6,9646.07 14954.9,9657.71C14953.3,9664.35 14947.7,9672.97 14937,9681.02C14924.5,9690.46 14902.4,9701.97 14885.2,9716.67C14855.7,9741.87 14833,9757.73 14818.5,9766.98C14819.2,9808.87 14821.4,9845.01 14826.1,9863.69C14828.4,9872.78 14833.3,9879.8 14839.6,9885.38C14845,9887.13 14849.9,9888.77 14854.5,9890.28C14891.8,9891.07 14942.8,9885.27 14986.7,9883.69C15020.9,9882.45 15051.2,9884.17 15069.9,9891.45L15074.2,9893.7L15078.2,9897.26L15081.7,9902.48L15084,9909.16C15086.5,9920.24 15087.5,9959.12 15086.7,9984.55C15086.3,9997.54 15085,10007.5 15084,10010.8C15083.2,10013.2 15082.4,10015.6 15081.2,10018L15076.7,10024.8C15072,10030.5 15063.7,10037.3 15044.4,10041C15024,10044.8 14985.3,10046.2 14910.2,10040.9C14857.8,10037.2 14812.4,10040.3 14776.8,10037.3C14773.9,10037.1 14771,10036.8 14768.2,10036.5C14751.7,10036.7 14734.1,10036.1 14720.7,10035.4C14719.3,10035.7 14718,10036 14716.7,10036.1C14711.5,10036.5 14706.1,10036.2 14699.5,10033.9C14698.9,10033.8 14698.4,10033.8 14698.2,10033.7C14694.8,10032.9 14691.8,10031.3 14689.4,10029.2C14688,10028.4 14686.6,10027.5 14685.2,10026.6C14679.6,10022.9 14676.1,10016.9 14675.7,10010.2C14675.4,10004.5 14674.3,9969.58 14673.4,9938.93C14672.9,9932.98 14672.6,9926.66 14672.6,9919.94C14672.6,9916.97 14672.6,9914.01 14672.6,9911.09C14672.3,9901.02 14672,9893.63 14672,9891.36C14671.8,9883.94 14671.1,9878.25 14670,9873.84C14669.8,9872.84 14669.6,9871.97 14669.4,9871.24C14668.3,9870.12 14667.1,9869.06 14665.8,9868.06C14665.5,9867.75 14665.1,9867.52 14664.7,9867.35C14664.4,9867.23 14664,9867.12 14663.6,9867.01C14663.4,9866.97 14663.2,9866.94 14662.9,9866.92Z" style="fill:rgb(35,31,32);"/>
            </g>
            <g id="_01" serif:id="01" transform="matrix(0.996075,0,0,1.00652,-131.687,-60.5643)">
                <path d="M15233.4,9954.53C15194.4,9900.25 15199.9,9834.91 15202.4,9786.57C15207.5,9687.85 15265.7,9612.07 15305.4,9575.65C15314.4,9566.16 15323.4,9558.19 15332.2,9551.47C15349.8,9538.08 15367,9529.49 15382.3,9523.81C15398.6,9514.56 15414.9,9510.62 15429.1,9509.93C15448.9,9504.56 15474.4,9506.07 15501.6,9515.61C15536.5,9527.86 15574.9,9553.23 15606.2,9590.63C15669.3,9646.88 15683.5,9716.36 15678.2,9779.09C15677.9,9832.4 15667.7,9891.68 15643.5,9940.75C15609.3,10010.1 15548.2,10059.9 15449.3,10049.7C15426.6,10047.3 15405.9,10044.1 15387.1,10040.1C15370.5,10038.6 15353,10036.6 15336,10032.5C15295.7,10022.7 15257.5,10002.3 15233.4,9954.53ZM15421.4,9688.12C15410.4,9696.02 15398.1,9707.88 15384.8,9725.38C15357.3,9761.53 15349.2,9808.62 15369,9840.96C15381.7,9861.74 15406.3,9874.91 15443,9875.4C15450.3,9875.5 15461.2,9869.76 15472.3,9861.32C15491.4,9846.78 15510,9822.58 15509.8,9791.57C15509.8,9783.26 15510.9,9764.3 15507.3,9743.99C15504.3,9727.09 15498.3,9708.65 15483.1,9697.21C15469.9,9687.22 15450.2,9683.37 15421.4,9688.12Z" style="fill:rgb(35,31,32);"/>
            </g>
            <g id="Hand" transform="matrix(0.475709,0,0,0.464177,11011,6589.21)">
                <path d="M10050.9,6296.33C10053.7,6296.33 10056.5,6296.58 10059.5,6297.11C10074.9,6299.87 10094.2,6314.71 10106.3,6334.58C10117.6,6353.31 10121.8,6375.28 10116.2,6391.67C10116.6,6394.28 10117.4,6399.2 10117.5,6401.84L10116.9,6408.91L10116.6,6409.84C10117.1,6412.96 10118.1,6419.74 10117.7,6423.27C10115.7,6442.52 10118.2,6461.84 10116.2,6481.02C10112.5,6516.71 10119.9,6553.3 10116,6588.8C10113.2,6614.76 10112.4,6646.43 10116.1,6672.35C10119.5,6696.3 10121.9,6730.01 10118,6753.59C10114.5,6775.11 10111.6,6825.38 10117,6846.95L10125.2,6855.6C10133.9,6852.81 10139.7,6846.2 10143.5,6838.44C10149.6,6826.04 10151.2,6810.77 10150,6797.28C10148.8,6783.03 10153.9,6766.4 10153.9,6751.37C10153.9,6718.38 10144.7,6674.36 10146.3,6643.18C10147.3,6623.27 10145.5,6602.62 10147.3,6582.54C10147.7,6578.37 10148.7,6572.14 10149.2,6565.97C10149.5,6563.16 10149.4,6558.38 10149.4,6557.65C10146.7,6549.22 10145.3,6541.66 10145.3,6533.03C10145.3,6490.01 10151.1,6444.69 10158.3,6402.29C10160.6,6388.58 10163.9,6373.26 10172.6,6361.67L10177.3,6356.78L10183.7,6352.7C10192.1,6348.6 10205.9,6347.5 10205.9,6347.5C10211.4,6347.21 10216.8,6348.83 10221.1,6352.05C10221.1,6352.05 10233.7,6361.55 10238.9,6367.38C10249.7,6379.67 10257,6396.76 10262.7,6411.61C10276.3,6447.59 10279.5,6489.21 10282.6,6527.46C10286.1,6571.1 10282.7,6616.43 10289.9,6659.61C10300.4,6723.5 10301.3,6801.12 10279.8,6862.9C10269.7,6891.8 10242.2,6921.64 10222.8,6941.27L10216.1,6946.66C10213.3,6948.4 10210.3,6949.86 10207,6951.08C10203,6952.58 10198.4,6953.45 10195,6954.89C10166,6967.04 10138.8,6965.5 10108.6,6972.16C10103,6973.39 10097.2,6973.45 10091.3,6972.97C10088.6,6972.75 10085.8,6971.76 10083.2,6972.33C10053.6,6978.88 10020.7,6979.77 9989.39,6984.08C9963.27,6987.67 9938.11,6993.5 9918.38,7010.67C9913.49,7014.92 9907.94,7018.59 9902.34,7022.2C9897.35,7025.4 9892.09,7028.29 9888.46,7032.71C9873.64,7050.76 9872.58,7073.92 9867.02,7095.18C9863.43,7108.92 9872.81,7130.22 9880.34,7142.66C9909.95,7191.59 9959.59,7212.1 10018.1,7204.11C10021.7,7203.61 10024.6,7201.07 10027.6,7198.97C10032.1,7195.91 10036.4,7192.73 10040.7,7190.19C10048.7,7185.42 10058.9,7178.96 10067.8,7171.2C10074.5,7165.43 10080.8,7159.14 10082.8,7151.85C10085.7,7141.94 10090.3,7134.55 10088.6,7123.71C10087.1,7114.32 10080.9,7105.49 10073.1,7097.58C10059.4,7083.72 10040.6,7072.85 10025,7069.14C10018.7,7067.61 10010.4,7065.96 10002.3,7065.98C9997.91,7065.99 9993.34,7065.92 9990.24,7068.51C9978.66,7078.2 9966.96,7088.42 9974.33,7102.52C9974.69,7103.21 9976.03,7105.09 9976.77,7106.11C9981.29,7109.31 9984.35,7113.96 9985.53,7119.08C9985.67,7119.18 9985.81,7119.28 9985.95,7119.38C9986.62,7119.84 9987.05,7120.79 9988,7120.65C9990.42,7120.29 9995.19,7119.6 9997.59,7119.25C9999.76,7117.19 10002.8,7114.38 10004.6,7113.17L10013.1,7109.23L10020.9,7108.37L10028.1,7109.81L10035.9,7114.4L10039.2,7118.03L10042.1,7123.22C10046.5,7134.56 10040.5,7147.21 10028.6,7151.46C10028.6,7151.49 10028.5,7151.51 10028.4,7151.53C10026,7153.69 10023.1,7156.29 10022.3,7156.79C10014.9,7161.2 10003.5,7162.76 9994.98,7164.02C9982.67,7165.83 9972.63,7163.01 9963.66,7157.84C9956.66,7153.81 9950.83,7147.35 9943.92,7143.22C9941.35,7141.68 9931.47,7133.54 9928.19,7128.41L9925.81,7123.75L9924.43,7118.32L9924.48,7117.79C9923.25,7115.7 9921.03,7111.86 9920.27,7110.18C9913.6,7095.28 9918.91,7069.98 9927.84,7058.01C9947.73,7031.37 9980.07,7023.86 10011.3,7016.97C10016.9,7015.72 10022.9,7015.56 10028.9,7015.82C10032.4,7015.97 10036,7016.82 10039.2,7015.97C10073.7,7006.98 10109.8,7006.44 10145.1,7003.69C10175.4,7001.33 10205.2,6997.38 10232.1,6981.28C10262.3,6963.2 10278,6937.91 10289.6,6910.14C10303,6878.07 10311.3,6842.81 10326,6809.15C10332.2,6794.88 10350.9,6771.7 10370.8,6762.75C10380.3,6758.49 10390.1,6756.98 10399.6,6758.55C10409.3,6760.18 10419.1,6764.95 10427.7,6775.19C10436.3,6785.49 10440.4,6797.67 10442,6810.67C10443.7,6823.16 10442.3,6836.58 10445.2,6847.79C10459.5,6902.32 10442.3,6964.66 10432.9,7018.44C10429.8,7036.22 10420.8,7067.74 10409.1,7081.79C10396.9,7096.39 10381.5,7106.89 10366.1,7117.14C10354.3,7124.96 10342.3,7132.53 10333.2,7143.61C10328.8,7149.05 10326.8,7155.89 10324.5,7162.49C10321.9,7169.63 10319.2,7176.69 10315.5,7183.1C10298.2,7212.99 10289.9,7248.45 10279.4,7281.2C10274.8,7295.54 10272.5,7311.22 10269.1,7326.47C10264.8,7345.15 10258.9,7363.18 10247.8,7378.68C10206.2,7436.92 10134.2,7458.12 10063.7,7469.35C9961.3,7485.69 9846.07,7477.91 9750.44,7439.97C9738.2,7435.12 9717.03,7420.37 9707.99,7406.12C9705.98,7402.95 9704.45,7399.77 9703.39,7396.67L9701.67,7388.76L9701.84,7381.91L9700.74,7378.84L9700.81,7372.3L9703.27,7364.99L9707.16,7359.66L9711.43,7356.1L9721.86,7351.64C9741.55,7346.68 9774.98,7352.6 9795.23,7355.58C9843.36,7362.67 9896.75,7371.06 9945.36,7363.72C9947.97,7363.33 9949.81,7361.26 9952.05,7360.08C9955.39,7358.34 9958.82,7356.85 9962.41,7355.82C9974.29,7352.41 9987.97,7345.29 9997.67,7335.57C10004.5,7328.7 10009.8,7320.43 10007,7310.86C10004.2,7300.84 9992.53,7292.54 9980.43,7295.43C9962.48,7299.72 9947.21,7309.66 9928.54,7313.49C9857.54,7328.05 9766.46,7315.65 9712.38,7274.25C9697.39,7262.78 9673.28,7240.44 9664.39,7222.38C9641.68,7176.19 9648.69,7123.55 9640.54,7074.18C9631.37,7018.61 9623.88,6963.88 9623.88,6909.25C9623.88,6882.89 9625.62,6856.55 9629.76,6830.15C9635.1,6796.09 9627.59,6759.24 9633.22,6725.14C9636.62,6704.57 9635.61,6683.21 9635.58,6661.87C9635.54,6637.14 9636.71,6612.46 9644.47,6588.73C9647.44,6579.63 9649.93,6568.31 9654.17,6558.34C9658.25,6548.79 9663.84,6540.33 9671.31,6534.08C9676.45,6529.77 9686.97,6523.59 9693.11,6521.99C9709.52,6517.7 9721.51,6519.66 9730.43,6523.95L9736.89,6527.83L9742.28,6532.57C9746.37,6536.86 9749.67,6542.18 9752.08,6548.41C9755.34,6556.83 9756.97,6567.41 9757.93,6578.55C9758.93,6590.22 9758.93,6602.75 9762.18,6612.11C9765.09,6620.45 9765.7,6629.72 9765.31,6639.21C9764.98,6647.22 9763.27,6655.49 9765.11,6662.56C9768.47,6675.38 9765.53,6690.07 9765.53,6702.98C9765.53,6734.14 9764.04,6767.73 9769.37,6798.34C9772.15,6814.28 9772.52,6829.45 9774.19,6843.81C9775.65,6856.39 9778.16,6868.28 9787.03,6879.22C9790.41,6877.71 9793.7,6875.94 9796.7,6873.29C9802.85,6867.85 9804.66,6858.81 9806.02,6849.73C9808.01,6836.49 9807.66,6822.6 9807.66,6812.05C9807.66,6775.98 9809.38,6740.34 9809.38,6704.18C9809.38,6679.77 9803.09,6652.13 9808.11,6628.13C9811.76,6610.65 9806.62,6592.03 9809.14,6574.41C9811.38,6558.7 9813.54,6523.61 9811.58,6509.81C9809.87,6497.83 9814.86,6475.89 9818.39,6464.08C9826.24,6437.79 9827.38,6410.33 9846.74,6387.17C9850.68,6382.46 9853.52,6376.11 9857.64,6371.28C9860.07,6368.42 9862.78,6365.87 9865.81,6363.71L9873.58,6359.38L9885.25,6356.41C9888.9,6356.02 9892.92,6356.06 9897.41,6356.72C9925.69,6360.88 9938.88,6377.5 9944.38,6399.9C9949.51,6420.76 9944.94,6448.91 9948.1,6468.07C9956.25,6517.46 9941.63,6571.38 9950.74,6620.76C9951.94,6627.26 9951.7,6634.29 9950.96,6641.39C9950.43,6646.36 9948.98,6651.39 9950.13,6655.81C9952.66,6665.47 9954.87,6697.5 9954.12,6720.31C9953.73,6732.18 9952.25,6741.93 9950.51,6746.66C9949.01,6750.73 9950.8,6755.75 9951.25,6760.69C9951.96,6768.65 9951.96,6776.5 9950.13,6783.49C9949.43,6786.17 9950.72,6788.95 9951.14,6791.75C9952,6797.59 9952.41,6803.38 9951.58,6808.93C9949.73,6821.32 9950.59,6835.35 9955.04,6846.74C9957.25,6852.38 9960.06,6857.52 9964.95,6860.02C9968.81,6862 9973.58,6861.68 9979.4,6859.83C9980.54,6856.85 9983.33,6849.5 9984.37,6846.52C9992.2,6824.05 9990.6,6796.3 9990.6,6772.38C9990.6,6700.87 9990.56,6626.16 9983.13,6555.01C9979.23,6517.7 9982.92,6480.18 9977.54,6443.13C9974.1,6419.45 9981.08,6397.12 9983.29,6373.91C9984.86,6357.4 9991.2,6334.59 10004.6,6322.78C10010.6,6317.42 10017.4,6309.16 10025.7,6303.93C10033.2,6299.27 10041.5,6296.33 10050.9,6296.33Z" style="fill:rgb(35,31,32);"/>
            </g>
        </g>
    </g>
</svg>
