<?xml version="1.0" encoding="UTF-8" standalone="no"?>
<!DOCTYPE svg PUBLIC "-//W3C//DTD SVG 1.1//EN" "http://www.w3.org/Graphics/SVG/1.1/DTD/svg11.dtd">
<svg width="100%" height="100%" viewBox="0 0 4312 1207" version="1.1" xmlns="http://www.w3.org/2000/svg" xmlns:xlink="http://www.w3.org/1999/xlink" xml:space="preserve" xmlns:serif="http://www.serif.com/" style="fill-rule:evenodd;clip-rule:evenodd;stroke-linejoin:round;stroke-miterlimit:2;">
    <g transform="matrix(1,0,0,1,-15127.7,-7925.82)">
        <g id="Portuguese---text-w-hand" serif:id="Portuguese - text w/hand" transform="matrix(1,0,0,1,2658.03,-966.371)">
            <g id="F1" transform="matrix(1.0769,0,0,1.00852,-977.046,-52.0844)">
                <path d="M12633.7,9345.49C12633.8,9346.45 12633.8,9347.39 12633.9,9348.31C12634.5,9366.4 12633.6,9377.54 12630.7,9385.95L12626.2,9393.85L12619.1,9399.64C12612.7,9403.34 12597.4,9406.71 12579.8,9407.32C12559.9,9408.01 12536.7,9405.98 12523.1,9401.59C12517.4,9399.75 12512.9,9397.39 12509.7,9394.97L12504,9389.34L12500.6,9383.54C12496.7,9374.32 12493.1,9343.51 12491.2,9304.72C12487.1,9221.21 12487.2,9098.12 12487.3,9097.4C12493.6,9037.83 12483.2,8993.07 12487.8,8918.1C12489.6,8888.51 12514.5,8876.55 12530.8,8873.25C12533.7,8872.65 12536.4,8872.33 12538.5,8872.17C12573.3,8865.63 12638.9,8870.41 12742.6,8870.57C12830.2,8870.7 12866.4,8870.33 12882.6,8872.26C12892.2,8873.4 12897.7,8875.64 12901.5,8877.95L12908.2,8883.42L12913.3,8890.74C12921,8904.49 12924,8925.18 12924.4,8928.29C12925.6,8938.06 12925.2,8958.98 12925.2,8961.65C12924.8,8979.36 12919.6,8992.02 12911.6,9001.31C12900.5,9014.19 12882.7,9021.23 12858.1,9022.62C12817.4,9024.93 12753.4,9012.13 12678.1,9016.5C12673.7,9018.6 12668.6,9019.17 12663.6,9017.87C12657.6,9019.09 12650,9021.79 12645.2,9028.09C12640.3,9034.59 12640.4,9044.59 12646,9059.91C12648.7,9067.41 12656.6,9070.9 12665.3,9073.81C12674.6,9076.96 12685.2,9078.73 12695.8,9079.68C12743.8,9077.88 12757.4,9077.88 12766.1,9077.88C12799.7,9077.88 12824.1,9085.78 12825,9086.1C12835.1,9087.96 12842.3,9096.79 12842.2,9107.07C12842.1,9109.66 12844.5,9147.66 12839.8,9172.56C12838,9181.52 12835.3,9189.16 12832,9194.54L12824.3,9203.41L12816.1,9208.15C12805,9212.22 12794.5,9213.13 12781.2,9212.41C12760.8,9211.32 12731.5,9206.09 12671.6,9210.73C12671.4,9210.77 12671.3,9210.81 12671.1,9210.86C12658.8,9214.54 12641.8,9225.2 12639.2,9250.31C12637.4,9267.2 12635.6,9312.3 12633.7,9345.49ZM12677,9016.56L12676.7,9016.72C12676.8,9016.67 12677,9016.61 12677.2,9016.55C12677.1,9016.55 12677,9016.56 12677,9016.56Z" style="fill:rgb(35,31,32);"/>
            </g>
            <g id="E3" transform="matrix(1,0,0,0.996567,-20,50.0608)">
                <path d="M13034.7,8988.73C13034.4,8987.71 13034.3,8986.66 13034.2,8985.58C13029.6,8925.59 13041.5,8899.94 13053.3,8888.7C13068,8874.57 13086.5,8876.67 13098.1,8877.02C13127.9,8877.92 13148.3,8878.1 13164.7,8878.11C13228.4,8876.43 13315.7,8875.24 13372.8,8877.99C13400.8,8875.62 13426,8873.04 13441.1,8872.63C13446.1,8872.5 13450.3,8872.7 13453.9,8873.09C13454.5,8873.09 13455.2,8873.1 13455.8,8873.12C13465.4,8873.48 13475,8876.14 13483.4,8883C13493.9,8891.57 13504.4,8908.86 13503.9,8946.12C13503.8,8949.24 13503.5,8952.15 13503,8954.88C13504.1,8959.04 13504.9,8962.87 13505.2,8966.31C13505.8,8972.11 13505.4,8977.27 13504.2,8981.76L13502.3,8987.32L13499.2,8992.74L13493.9,8998.68L13487.5,9003.1C13483.8,9005.1 13479.4,9006.68 13473.9,9007.55C13444.2,9012.27 13383.5,9009.02 13333,9007.7C13316.9,9010.79 13298.2,9009.93 13278.7,9010.3C13257.9,9010.71 13235.9,9013.59 13217.2,9033.16C13216.5,9054.15 13230,9064.74 13242.6,9070.37C13300.4,9069.74 13350.7,9062.03 13379.6,9063.62C13381.7,9063.74 13383.8,9063.93 13385.8,9064.17C13397.2,9063.94 13407.6,9065.91 13417.9,9070.68C13429.2,9075.92 13438.3,9088.37 13442.5,9104.2C13447.6,9123.14 13445.7,9146.03 13440.6,9156.45C13422.2,9194.23 13392.5,9202.04 13352.7,9202.39C13317.3,9202.7 13271.9,9196.31 13221.5,9220.69C13218.7,9228.94 13217.7,9238.78 13221.1,9250.56C13224.1,9261.14 13234.9,9265.52 13247.3,9269.7C13253.2,9271.7 13259.6,9273.41 13266.3,9274.94C13332.9,9270.31 13388.1,9263.6 13423.1,9262.86C13444.4,9262.42 13459.5,9268.76 13470.3,9277.99C13493.2,9297.74 13496.1,9334.81 13491.5,9361.37C13489.3,9374.67 13485.3,9385.11 13482.7,9389.46L13478.2,9395.28L13473.1,9398.95C13467.4,9401.95 13463.7,9404.1 13449.5,9405.42C13435,9406.75 13404.3,9407.21 13328.6,9407.72C13228.3,9408.39 13173.7,9415.22 13140.4,9417.24C13112.8,9418.91 13096.9,9416.73 13083.7,9409.4C13061.5,9403.85 13049,9389.87 13042.4,9375.61C13038.8,9369.72 13038.5,9365.64 13038.1,9363.32C13037.8,9362.21 13037.6,9361.1 13037.4,9360.02C13035.6,9351.1 13036,9343.12 13037.2,9337.69C13036.2,9293.54 13035.1,9207.08 13035.1,9204.43C13036.7,9106.31 13034,9037.04 13034.7,8988.73ZM13186,9320.88C13186.1,9321.15 13186.2,9321.43 13186.3,9321.72C13186.5,9321.43 13186.7,9321.14 13186.8,9320.86C13186.6,9320.87 13186.3,9320.87 13186,9320.88Z" style="fill:rgb(35,31,32);"/>
            </g>
            <g id="I3" transform="matrix(1.11273,0,0,1.01004,-1544.86,-70.0761)">
                <path d="M13615.3,9023.37C13604,9022.56 13595.6,9019.2 13589.3,9014.27C13580.9,9007.74 13575.1,8997.86 13572.7,8982.83C13569.8,8964.89 13572.2,8936.03 13574.2,8893.17C13574.7,8881.59 13584.6,8872.64 13596.1,8873.18C13598.9,8873.31 13601.5,8873.96 13603.8,8875.02L13605,8875.04C13640.7,8882.25 13751.6,8873.55 13810,8879.11L13815.8,8880.38L13820.8,8882.88L13825.4,8886.71L13829.6,8892.45C13832.4,8897.8 13834.7,8908.15 13834.4,8921.24C13834,8945.58 13827,8982.62 13821.4,8997.93L13816,9008.58L13812.3,9012.58L13807.7,9015.72C13804.3,9017.43 13798.7,9018.98 13791.4,9020.24C13786.1,9032.35 13779.2,9051.51 13777.7,9071.16C13779.5,9120.56 13781,9186.26 13781,9232.52C13782.4,9242.69 13784.6,9251.97 13788.3,9260.03C13795.6,9259.57 13801.6,9259.23 13805.7,9259.06C13809.5,9258.89 13812.2,9258.9 13813.3,9258.97L13818.8,9259.96L13824.4,9262.67L13829.9,9268.17L13833.9,9277.76C13835.8,9286.58 13838.8,9316.01 13834.5,9344.03C13834.2,9345.39 13834,9346.74 13833.8,9348.08C13833.7,9358.89 13833.5,9366.11 13831.7,9386.49C13830.8,9396.95 13822.3,9405.13 13811.8,9405.64C13801.9,9406.12 13794.6,9406.54 13789.3,9406.85C13784.5,9407.69 13778.7,9408.41 13772.1,9408.97C13717.3,9413.53 13596.5,9409.31 13591.3,9408.82C13580.3,9407.79 13572,9398.37 13572.3,9387.31C13572.4,9383.26 13573.2,9354.39 13573.8,9333.01C13572,9314.63 13571.7,9296.23 13571.9,9295.36L13575,9287.18L13580,9281.73L13586.5,9278.31C13588,9277.82 13591.1,9277.05 13595.8,9276.37C13601.4,9275.56 13610.5,9274.54 13621.8,9273.41C13622.4,9272.31 13623,9271.12 13623.6,9269.84C13624.3,9250 13625.7,9218.56 13624.3,9159.68C13622.7,9093.34 13619.1,9055.17 13617.3,9026.76C13616.6,9025.53 13615.9,9024.42 13615.3,9023.37Z" style="fill:rgb(35,31,32);"/>
            </g>
            <g id="T1" transform="matrix(1.12047,0,0,1.01131,-1898.56,-80.1032)">
                <path d="M14223.5,9039.6C14199,9039.4 14183.8,9039.28 14173.8,9038.86C14151,9037.88 14146.6,9034.61 14139.3,9029.31L14132.9,9022.18L14128.5,9011.15C14124.9,8996.89 14122.6,8963.69 14121.5,8936.41C14120.7,8916.69 14120.4,8900.19 14120.4,8897.03L14120.6,8893.37L14122.5,8887.26L14126.5,8881.67C14132.4,8875.8 14140.9,8874.14 14148.2,8876.67C14188.6,8871.81 14268.5,8871.91 14278.8,8871.94C14328.4,8872.07 14327.9,8873.62 14377.6,8875.37C14497.7,8879.58 14497.7,8875.78 14508,8877.52C14524.4,8880.28 14537,8894.77 14540.7,8918.5C14546,8952.55 14534.2,9007.93 14527.4,9020.8L14523.3,9027.4L14517.4,9033.02C14513.7,9035.75 14508.4,9038.53 14499,9040.19C14490.9,9041.6 14477.6,9042.39 14454.5,9042.58C14451.2,9045.62 14447.4,9050.23 14444,9057.42C14441.6,9062.4 14439.5,9067.44 14437.6,9072.49C14437.5,9086.94 14436.7,9102.09 14437.1,9114.54C14437.7,9135.51 14443.5,9329.29 14440.2,9376.71C14439.9,9381.42 14439.1,9385.17 14438,9388.2L14432.8,9397.34L14425.6,9403.39L14418.2,9406.5C14410.3,9408.74 14394.6,9407.51 14363.3,9409.07C14357,9409.38 14352.2,9408.92 14348.5,9408.08L14345.9,9407.26C14336.4,9409.26 14326.8,9408.52 14319,9406.22C14316.5,9405.94 14314.1,9405.56 14311.8,9405.09C14304.4,9404.85 14297,9404.15 14291,9402.52C14283.5,9400.51 14277.3,9397.23 14272.9,9393.17L14267.3,9386.58L14263.6,9378.06C14263.5,9377.55 14262.8,9373.35 14262.7,9365.99C14262.1,9329.39 14261.2,9157.53 14248.3,9066.85C14242.6,9056.85 14234.8,9047.7 14223.5,9039.6ZM14307.1,9357.15C14307,9357.12 14307,9357.1 14306.9,9357.07L14307.1,9357.18L14307.1,9357.15Z" style="fill:rgb(35,31,32);"/>
            </g>
            <g id="O2" transform="matrix(1.0016,0,0,1.00466,-234.597,-18.1508)">
                <path d="M14908.7,9409.04C14889.1,9410.28 14867.2,9410.09 14842.3,9408.22C14826,9406.99 14738.3,9402.16 14691.2,9270.55C14661.3,9187.15 14661.7,9137.56 14672.6,9098.03C14675.6,9074.33 14681.9,9051.4 14692.6,9030.88C14711.2,8995.12 14732.5,8967.09 14753.8,8945.51C14788.4,8904.61 14825.2,8884.08 14859.3,8875C14884.3,8868.35 14908.1,8867.88 14929.4,8870.58C14933,8870.2 14936.6,8870.8 14939.8,8872.19C14984.8,8880.33 15016,8901.52 15017.6,8902.99C15086.1,8966.43 15120.5,9039.8 15129.1,9110.51C15130.8,9112.98 15132.1,9115.87 15132.6,9119.03C15144.5,9188.29 15133.8,9209.69 15109.6,9264.9C15105.1,9278.34 15100,9291.11 15094.6,9302.96C15089.9,9313.11 15085,9322.59 15079.8,9331.28C15071.5,9346.65 15064.6,9355.58 15059.5,9360.58C15058.5,9361.56 15057.5,9362.45 15056.6,9363.25C15050.3,9370.21 15043.9,9375.97 15037.5,9380.34C14996.8,9408.35 14940.7,9410.86 14908.7,9409.04ZM14971.1,9237.66C15005.7,9205.13 15014.1,9157.36 15003.5,9115.7C14994.1,9079.33 14970.7,9047.28 14936.9,9035.7C14931,9033.67 14924.8,9032.3 14918.3,9031.65C14914.7,9032.33 14911.2,9033.09 14907.5,9033.94C14881.7,9040.03 14853,9051.24 14837.6,9077.71C14823.7,9101.59 14814.2,9127.64 14809.9,9153.03C14809.6,9163.73 14810.1,9175.12 14811.3,9187.25C14819.1,9263.43 14906.2,9286.43 14963.9,9243.53C14966.3,9241.69 14968.8,9239.74 14971.1,9237.66Z" style="fill:rgb(35,31,32);"/>
            </g>
            <g id="O21" serif:id="O2" transform="matrix(-0.988405,-1.11764e-16,1.27164e-16,-0.966659,30224.6,18651.5)">
                <path d="M14665.9,9142.27C14663.8,9066.43 14694.6,8995.93 14735.7,8942.89C14784,8880.66 14847.1,8844.15 14887.2,8848.07C14998.7,8858.93 15040.8,8873.5 15112,8969.99C15125,8987.59 15134.6,9018.63 15139.5,9054.16C15146.4,9103.87 15144.8,9162.3 15135.7,9199.24C15125.4,9240.77 15111.7,9273.85 15095.8,9300.28C15095.4,9301.18 15095,9302.07 15094.6,9302.96C15089.9,9313.11 15085,9322.59 15079.8,9331.28C15071.5,9346.65 15064.6,9355.58 15059.5,9360.58C15058.5,9361.56 15057.5,9362.45 15056.6,9363.25C15050.3,9370.21 15043.9,9375.97 15037.5,9380.34C14996.8,9408.35 14940.7,9410.86 14908.7,9409.04C14906.2,9409.2 14903.6,9409.34 14901,9409.45C14897.1,9409.85 14894,9409.91 14891.8,9409.74C14876.7,9410.04 14860.3,9409.57 14842.3,9408.22C14826,9406.99 14738.3,9402.16 14691.2,9270.55C14671.4,9215.22 14664.9,9174.77 14665.9,9142.27ZM14971.1,9237.66C15005.7,9205.13 15014.1,9157.36 15003.5,9115.7C14994.1,9079.33 14970.7,9047.28 14936.9,9035.7C14931,9033.67 14924.8,9032.3 14918.3,9031.65C14914.7,9032.33 14911.2,9033.09 14907.5,9033.94C14881.7,9040.03 14853,9051.24 14837.6,9077.71C14823.7,9101.59 14814.2,9127.64 14809.9,9153.03C14809.6,9163.73 14810.1,9175.12 14811.3,9187.25C14819.1,9263.43 14906.2,9286.43 14963.9,9243.53C14966.3,9241.69 14968.8,9239.74 14971.1,9237.66Z" style="fill:rgb(35,31,32);"/>
            </g>
            <g id="P1" transform="matrix(0.988405,0,0,1.00015,190.118,24.052)">
                <path d="M15381.9,9288.9C15381,9314.93 15379.9,9337.27 15378.7,9353.51C15377.6,9367.78 15376.2,9377.89 15375,9382.61L15371.5,9390.91L15367.4,9395.72L15361.9,9399.72C15358,9401.88 15351.8,9404.08 15343.7,9405.62C15321.5,9409.86 15280.4,9410.9 15253.5,9409.23C15239.2,9408.35 15228.2,9406.21 15223.7,9404.23C15215.9,9400.83 15210.9,9393.09 15211.1,9384.61C15215.4,9139.76 15206.8,9140.16 15209.1,8895.15C15209.2,8883.56 15218.7,8874.24 15230.3,8874.34C15230.4,8874.35 15230.6,8874.35 15230.7,8874.35C15233.1,8873.45 15237.1,8872.38 15242.2,8871.65C15255.6,8869.75 15281.1,8868.53 15284.3,8868.38C15287.7,8868.22 15291.2,8868.45 15294.8,8869.02C15344.7,8866.19 15424,8865.7 15521.9,8869.42C15562.7,8870.97 15593.8,8881.19 15617.4,8896.36C15665.5,8927.29 15683.7,8979.34 15686.3,9028.75C15688.9,9076.77 15676.6,9121.65 15666.7,9139.62C15664.5,9143.44 15661.9,9147.07 15658.9,9150.49C15647.3,9180.17 15633.5,9199.42 15616.5,9212.53C15601,9224.57 15582.5,9231.76 15559.5,9236.13C15529.8,9241.75 15491.8,9242.65 15441.5,9246.34C15427.8,9247.34 15416.3,9249 15406.7,9251.27C15403.9,9253.1 15401.3,9255.36 15398.9,9257.94C15390.4,9271.77 15385.4,9280.85 15381.9,9288.9ZM15527.6,9062.32C15528.4,9049.96 15524.4,9035.51 15516.5,9022.65C15509.5,9011.37 15499.4,9001.29 15486.3,8995.07C15476.3,8990.3 15462.5,8988.37 15447.7,8987.3C15431.3,8986.11 15413.8,8986.24 15397.7,8986.44C15394,8988.97 15390.4,8992.04 15386.9,8995.82C15384.7,8998.33 15382.5,9001.18 15380.5,9004.4C15381,9013.11 15381.4,9022.3 15381.8,9031.88C15382.4,9046.67 15382.9,9062.4 15383.2,9078.69C15385.2,9080.68 15387.4,9082.56 15390,9084.27C15403.1,9092.81 15423.7,9096.28 15456.7,9091.11C15493.6,9085.35 15514.1,9079.76 15524.5,9067.05C15525.7,9065.56 15526.7,9063.98 15527.6,9062.32Z" style="fill:rgb(35,31,32);"/>
            </g>
            <g id="_02" serif:id="02" transform="matrix(0.845349,0,0,0.959289,2213.72,-248.854)">
                <path d="M16105.3,10013C16093.4,10001.6 16081.2,9988.38 16068.1,9973.13C16053,9955.53 16041.8,9924.49 16036.1,9888.96C16028.1,9839.25 16029.9,9780.82 16040.6,9743.88C16061.4,9671.33 16094.6,9624.56 16131.8,9594.01C16165,9566.7 16201.6,9552.32 16236.4,9544.66C16246.6,9540.68 16256.6,9537.58 16266.5,9535.22C16295.5,9528.25 16323.2,9527.76 16347.9,9530.59C16352.1,9530.2 16356.3,9530.82 16360.1,9532.28C16412.4,9540.8 16448.7,9562.99 16450.5,9564.53C16489,9596.58 16518.2,9631.05 16539.2,9666.46C16572.8,9713.6 16586.8,9761.34 16587.1,9807.01C16596.1,9867.07 16583.5,9890.28 16557.5,9943.56C16552.3,9957.63 16546.4,9971.01 16540.1,9983.42C16534.7,9994.05 16528.9,10004 16522.9,10013.1C16513.2,10029.2 16505.2,10038.5 16499.3,10043.8C16498.1,10044.8 16497,10045.7 16495.9,10046.6C16488.6,10053.9 16481.1,10059.9 16473.7,10064.5C16434.3,10088.9 16382.5,10094.8 16344.8,10095C16339.5,10095.4 16334.4,10095.5 16329.6,10095.1C16327.5,10094.9 16325.5,10094.7 16323.5,10094.5C16300.9,10095.8 16275.4,10095.6 16246.7,10093.7C16231.2,10092.6 16160.5,10089 16105.3,10013ZM16437,9799.93C16436.3,9795.68 16435.3,9791.46 16434.1,9787.31C16423.3,9749.22 16396,9715.65 16356.7,9703.52C16349.8,9701.39 16342.6,9699.96 16335,9699.28C16330.9,9699.99 16326.7,9700.79 16322.5,9701.68C16292.5,9708.05 16259.1,9719.8 16241.2,9747.52C16225,9772.53 16214,9799.81 16209,9826.4C16208.7,9837.6 16209.1,9849.54 16210.6,9862.23C16218.1,9927.95 16288.1,9955.88 16350.1,9938.58C16401.1,9900.99 16430.5,9849.37 16437,9799.93Z" style="fill:rgb(35,31,32);"/>
            </g>
            <g id="S1" transform="matrix(0.942279,0,0,0.933691,-2.36283,670.915)">
                <path d="M16770,9948.64C16768.7,9931.29 16772.6,9916.44 16779.4,9904.86C16804.7,9862.28 16878.4,9852.95 16927.4,9916.84C16939.2,9932.29 16963.9,9948.88 16987.5,9954.59C16998.3,9957.19 17009,9957.93 17017.1,9952.44C17022,9949.07 17025.5,9943.31 17027.8,9935.23C17028.9,9931.45 17027.8,9927.85 17026.2,9924.44C17024.9,9921.73 17023.4,9919.12 17021.6,9916.62C16968.8,9880.15 16916.3,9852.01 16877.4,9821.15C16832.1,9785.23 16804,9745.49 16806.2,9690.41C16812.4,9537 16908.4,9489.69 17122.7,9517.15C17152.8,9521.01 17175.4,9537.25 17193.3,9548C17194.5,9548.55 17195.7,9549.11 17196.9,9549.68C17223.7,9562.53 17245.2,9580.8 17255.9,9604.66C17266.7,9628.92 17268.3,9650.4 17248.6,9688.82L17243.7,9696.18L17237.4,9702.22C17233.1,9705.41 17228.2,9707.83 17222.6,9709.36C17211.2,9712.45 17195.7,9711.63 17177.9,9706.98C17165.6,9703.78 17150.7,9708.06 17136.3,9702.18C17118.3,9697.48 17092.3,9693.29 17071,9693.99C17057.9,9690.25 17052,9690.57 17039.5,9690.84C17001.1,9691.68 17007.4,9704.6 17006.1,9716.6C17005.6,9721.52 17006.1,9726.66 17007.9,9731.99C17008.3,9732.44 17008.8,9732.89 17009.2,9733.33C17024.5,9748.4 17052.3,9758.62 17086.2,9782.17C17109.4,9798.25 17154.7,9836.84 17190.8,9872.16C17221.5,9902.19 17251,9937.61 17263.7,9970.26C17272.7,9993.36 17273.8,10015.5 17265.4,10034.8C17259.7,10048 17247.6,10066.9 17231.2,10077C17216.4,10086.2 17192.9,10085.5 17164.2,10088.5C17103.9,10094.9 17028.6,10089.6 17027.4,10089.4C17023.9,10089 17018.7,10090.9 17012.3,10089.4C16985.7,10089.1 16957.5,10083.7 16930.9,10079.5C16902.6,10075 16876,10068 16854.3,10058.9C16840.1,10055.6 16826.2,10051.3 16814.9,10046.5C16803.3,10041.6 16794.1,10035.8 16788.8,10030.5L16783.2,10023.2L16780.2,10016.4C16772.4,9988.59 16769.6,9966.38 16770,9948.64Z" style="fill:rgb(35,31,32);"/>
            </g>
            <g id="Hand" transform="matrix(0.471429,0,0,0.46,11818.9,6645.02)">
                <path d="M10050.9,6296.33C10053.7,6296.33 10056.5,6296.58 10059.5,6297.11C10074.9,6299.87 10094.2,6314.71 10106.3,6334.58C10117.6,6353.31 10121.8,6375.28 10116.2,6391.67C10116.6,6394.28 10117.4,6399.2 10117.5,6401.84L10116.9,6408.91L10116.6,6409.84C10117.1,6412.96 10118.1,6419.74 10117.7,6423.27C10115.7,6442.52 10118.2,6461.84 10116.2,6481.02C10112.5,6516.71 10119.9,6553.3 10116,6588.8C10113.2,6614.76 10112.4,6646.43 10116.1,6672.35C10119.5,6696.3 10121.9,6730.01 10118,6753.59C10114.5,6775.11 10111.6,6825.38 10117,6846.95L10125.2,6855.6C10133.9,6852.81 10139.7,6846.2 10143.5,6838.44C10149.6,6826.04 10151.2,6810.77 10150,6797.28C10148.8,6783.03 10153.9,6766.4 10153.9,6751.37C10153.9,6718.38 10144.7,6674.36 10146.3,6643.18C10147.3,6623.27 10145.5,6602.62 10147.3,6582.54C10147.7,6578.37 10148.7,6572.14 10149.2,6565.97C10149.5,6563.16 10149.4,6558.38 10149.4,6557.65C10146.7,6549.22 10145.3,6541.66 10145.3,6533.03C10145.3,6490.01 10151.1,6444.69 10158.3,6402.29C10160.6,6388.58 10163.9,6373.26 10172.6,6361.67L10177.3,6356.78L10183.7,6352.7C10192.1,6348.6 10205.9,6347.5 10205.9,6347.5C10211.4,6347.21 10216.8,6348.83 10221.1,6352.05C10221.1,6352.05 10233.7,6361.55 10238.9,6367.38C10249.7,6379.67 10257,6396.76 10262.7,6411.61C10276.3,6447.59 10279.5,6489.21 10282.6,6527.46C10286.1,6571.1 10282.7,6616.43 10289.9,6659.61C10300.4,6723.5 10301.3,6801.12 10279.8,6862.9C10269.7,6891.8 10242.2,6921.64 10222.8,6941.27L10216.1,6946.66C10213.3,6948.4 10210.3,6949.86 10207,6951.08C10203,6952.58 10198.4,6953.45 10195,6954.89C10166,6967.04 10138.8,6965.5 10108.6,6972.16C10103,6973.39 10097.2,6973.45 10091.3,6972.97C10088.6,6972.75 10085.8,6971.76 10083.2,6972.33C10053.6,6978.88 10020.7,6979.77 9989.39,6984.08C9963.27,6987.67 9938.11,6993.5 9918.38,7010.67C9913.49,7014.92 9907.94,7018.59 9902.34,7022.2C9897.35,7025.4 9892.09,7028.29 9888.46,7032.71C9873.64,7050.76 9872.58,7073.92 9867.02,7095.18C9863.43,7108.92 9872.81,7130.22 9880.34,7142.66C9909.95,7191.59 9959.59,7212.1 10018.1,7204.11C10021.7,7203.61 10024.6,7201.07 10027.6,7198.97C10032.1,7195.91 10036.4,7192.73 10040.7,7190.19C10048.7,7185.42 10058.9,7178.96 10067.8,7171.2C10074.5,7165.43 10080.8,7159.14 10082.8,7151.85C10085.7,7141.94 10090.3,7134.55 10088.6,7123.71C10087.1,7114.32 10080.9,7105.49 10073.1,7097.58C10059.4,7083.72 10040.6,7072.85 10025,7069.14C10018.7,7067.61 10010.4,7065.96 10002.3,7065.98C9997.91,7065.99 9993.34,7065.92 9990.24,7068.51C9978.66,7078.2 9966.96,7088.42 9974.33,7102.52C9974.69,7103.21 9976.03,7105.09 9976.77,7106.11C9981.29,7109.31 9984.35,7113.96 9985.53,7119.08C9985.67,7119.18 9985.81,7119.28 9985.95,7119.38C9986.62,7119.84 9987.05,7120.79 9988,7120.65C9990.42,7120.29 9995.19,7119.6 9997.59,7119.25C9999.76,7117.19 10002.8,7114.38 10004.6,7113.17L10013.1,7109.23L10020.9,7108.37L10028.1,7109.81L10035.9,7114.4L10039.2,7118.03L10042.1,7123.22C10046.5,7134.56 10040.5,7147.21 10028.6,7151.46C10028.6,7151.49 10028.5,7151.51 10028.4,7151.53C10026,7153.69 10023.1,7156.29 10022.3,7156.79C10014.9,7161.2 10003.5,7162.76 9994.98,7164.02C9982.67,7165.83 9972.63,7163.01 9963.66,7157.84C9956.66,7153.81 9950.83,7147.35 9943.92,7143.22C9941.35,7141.68 9931.47,7133.54 9928.19,7128.41L9925.81,7123.75L9924.43,7118.32L9924.48,7117.79C9923.25,7115.7 9921.03,7111.86 9920.27,7110.18C9913.6,7095.28 9918.91,7069.98 9927.84,7058.01C9947.73,7031.37 9980.07,7023.86 10011.3,7016.97C10016.9,7015.72 10022.9,7015.56 10028.9,7015.82C10032.4,7015.97 10036,7016.82 10039.2,7015.97C10073.7,7006.98 10109.8,7006.44 10145.1,7003.69C10175.4,7001.33 10205.2,6997.38 10232.1,6981.28C10262.3,6963.2 10278,6937.91 10289.6,6910.14C10303,6878.07 10311.3,6842.81 10326,6809.15C10332.2,6794.88 10350.9,6771.7 10370.8,6762.75C10380.3,6758.49 10390.1,6756.98 10399.6,6758.55C10409.3,6760.18 10419.1,6764.95 10427.7,6775.19C10436.3,6785.49 10440.4,6797.67 10442,6810.67C10443.7,6823.16 10442.3,6836.58 10445.2,6847.79C10459.5,6902.32 10442.3,6964.66 10432.9,7018.44C10429.8,7036.22 10420.8,7067.74 10409.1,7081.79C10396.9,7096.39 10381.5,7106.89 10366.1,7117.14C10354.3,7124.96 10342.3,7132.53 10333.2,7143.61C10328.8,7149.05 10326.8,7155.89 10324.5,7162.49C10321.9,7169.63 10319.2,7176.69 10315.5,7183.1C10298.2,7212.99 10289.9,7248.45 10279.4,7281.2C10274.8,7295.54 10272.5,7311.22 10269.1,7326.47C10264.8,7345.15 10258.9,7363.18 10247.8,7378.68C10206.2,7436.92 10134.2,7458.12 10063.7,7469.35C9961.3,7485.69 9846.07,7477.91 9750.44,7439.97C9738.2,7435.12 9717.03,7420.37 9707.99,7406.12C9705.98,7402.95 9704.45,7399.77 9703.39,7396.67L9701.67,7388.76L9701.84,7381.91L9700.74,7378.84L9700.81,7372.3L9703.27,7364.99L9707.16,7359.66L9711.43,7356.1L9721.86,7351.64C9741.55,7346.68 9774.98,7352.6 9795.23,7355.58C9843.36,7362.67 9896.75,7371.06 9945.36,7363.72C9947.97,7363.33 9949.81,7361.26 9952.05,7360.08C9955.39,7358.34 9958.82,7356.85 9962.41,7355.82C9974.29,7352.41 9987.97,7345.29 9997.67,7335.57C10004.5,7328.7 10009.8,7320.43 10007,7310.86C10004.2,7300.84 9992.53,7292.54 9980.43,7295.43C9962.48,7299.72 9947.21,7309.66 9928.54,7313.49C9857.54,7328.05 9766.46,7315.65 9712.38,7274.25C9697.39,7262.78 9673.28,7240.44 9664.39,7222.38C9641.68,7176.19 9648.69,7123.55 9640.54,7074.18C9631.37,7018.61 9623.88,6963.88 9623.88,6909.25C9623.88,6882.89 9625.62,6856.55 9629.76,6830.15C9635.1,6796.09 9627.59,6759.24 9633.22,6725.14C9636.62,6704.57 9635.61,6683.21 9635.58,6661.87C9635.54,6637.14 9636.71,6612.46 9644.47,6588.73C9647.44,6579.63 9649.93,6568.31 9654.17,6558.34C9658.25,6548.79 9663.84,6540.33 9671.31,6534.08C9676.45,6529.77 9686.97,6523.59 9693.11,6521.99C9709.52,6517.7 9721.51,6519.66 9730.43,6523.95L9736.89,6527.83L9742.28,6532.57C9746.37,6536.86 9749.67,6542.18 9752.08,6548.41C9755.34,6556.83 9756.97,6567.41 9757.93,6578.55C9758.93,6590.22 9758.93,6602.75 9762.18,6612.11C9765.09,6620.45 9765.7,6629.72 9765.31,6639.21C9764.98,6647.22 9763.27,6655.49 9765.11,6662.56C9768.47,6675.38 9765.53,6690.07 9765.53,6702.98C9765.53,6734.14 9764.04,6767.73 9769.37,6798.34C9772.15,6814.28 9772.52,6829.45 9774.19,6843.81C9775.65,6856.39 9778.16,6868.28 9787.03,6879.22C9790.41,6877.71 9793.7,6875.94 9796.7,6873.29C9802.85,6867.85 9804.66,6858.81 9806.02,6849.73C9808.01,6836.49 9807.66,6822.6 9807.66,6812.05C9807.66,6775.98 9809.38,6740.34 9809.38,6704.18C9809.38,6679.77 9803.09,6652.13 9808.11,6628.13C9811.76,6610.65 9806.62,6592.03 9809.14,6574.41C9811.38,6558.7 9813.54,6523.61 9811.58,6509.81C9809.87,6497.83 9814.86,6475.89 9818.39,6464.08C9826.24,6437.79 9827.38,6410.33 9846.74,6387.17C9850.68,6382.46 9853.52,6376.11 9857.64,6371.28C9860.07,6368.42 9862.78,6365.87 9865.81,6363.71L9873.58,6359.38L9885.25,6356.41C9888.9,6356.02 9892.92,6356.06 9897.41,6356.72C9925.69,6360.88 9938.88,6377.5 9944.38,6399.9C9949.51,6420.76 9944.94,6448.91 9948.1,6468.07C9956.25,6517.46 9941.63,6571.38 9950.74,6620.76C9951.94,6627.26 9951.7,6634.29 9950.96,6641.39C9950.43,6646.36 9948.98,6651.39 9950.13,6655.81C9952.66,6665.47 9954.87,6697.5 9954.12,6720.31C9953.73,6732.18 9952.25,6741.93 9950.51,6746.66C9949.01,6750.73 9950.8,6755.75 9951.25,6760.69C9951.96,6768.65 9951.96,6776.5 9950.13,6783.49C9949.43,6786.17 9950.72,6788.95 9951.14,6791.75C9952,6797.59 9952.41,6803.38 9951.58,6808.93C9949.73,6821.32 9950.59,6835.35 9955.04,6846.74C9957.25,6852.38 9960.06,6857.52 9964.95,6860.02C9968.81,6862 9973.58,6861.68 9979.4,6859.83C9980.54,6856.85 9983.33,6849.5 9984.37,6846.52C9992.2,6824.05 9990.6,6796.3 9990.6,6772.38C9990.6,6700.87 9990.56,6626.16 9983.13,6555.01C9979.23,6517.7 9982.92,6480.18 9977.54,6443.13C9974.1,6419.45 9981.08,6397.12 9983.29,6373.91C9984.86,6357.4 9991.2,6334.59 10004.6,6322.78C10010.6,6317.42 10017.4,6309.16 10025.7,6303.93C10033.2,6299.27 10041.5,6296.33 10050.9,6296.33Z" style="fill:rgb(35,31,32);"/>
            </g>
            <g id="H1" transform="matrix(2.37944,0,0,2.3758,10985.1,4784.46)">
                <path d="M626.469,2218.73L626.317,2218.45C623.807,2211.76 623.487,2203.98 624.402,2195.88C625.111,2189.61 627.16,2183.05 626.298,2177.59C624.11,2163.72 624.053,2074.41 627.68,2062.32C628.288,2060.29 627.634,2057.03 627.382,2053.48C626.909,2046.84 626.264,2039.67 626.483,2033.8C626.66,2029.03 627.415,2024.83 628.612,2021.53L631.696,2015.54L635.353,2011.45C639.881,2007.49 645.908,2006.33 651.307,2007.83L651.909,2007.75C654.592,2007.79 659.469,2008.39 662.251,2008.9C665.736,2008.68 669.836,2008.55 672.302,2008.89L680.93,2011.54L687.126,2016.21L690.215,2020.35L692.258,2024.91L693.6,2033.7C693.6,2039.13 693.571,2044.61 693.522,2050.12C694.803,2056.38 695.968,2062.8 696.99,2068.93C697.927,2074.55 702.53,2079.39 707.647,2083.23C713.289,2087.47 719.971,2090.56 725.797,2090.56C733.929,2090.56 738.603,2085.56 742.077,2079.65C747.967,2069.63 751.03,2057.08 754.308,2047.25C755.356,2044.1 754.675,2040.53 754.791,2037.08C754.978,2031.5 755.803,2026.06 757.968,2021.01L761.715,2015.34L767.069,2011.27C770.232,2009.56 775.542,2007.96 781.621,2007.31C789.928,2006.43 799.765,2007.16 804.766,2008.74L809.44,2010.74L813.69,2013.97L816.669,2017.64L819.293,2022.93C820.389,2025.94 821.108,2029.67 821.327,2033.84C821.776,2042.35 819.357,2054.18 819.9,2059.43C821.506,2074.95 819.703,2107.06 819.308,2134.2C819.09,2149.17 818.848,2162.34 820.98,2168.39L822.444,2178.52C822.756,2189.37 821.275,2211.64 819.863,2217.41L818.433,2221.55L816.099,2225.28L813.167,2228.14L809.746,2230.2L803.001,2231.8C801.803,2231.89 799.492,2231.94 796.697,2231.98C795.747,2232.06 794.792,2232.07 793.843,2232C790.741,2232.02 787.347,2232.02 784.324,2231.99C780.5,2232.72 776.072,2233.45 774.149,2233.36L766.734,2231.66L763.408,2229.77L760.111,2226.75L757.581,2222.87L755.795,2216.83C754.841,2210.58 755.241,2185.21 754.723,2181.58C752.831,2168.34 749.379,2156.44 740.42,2151.58C735.272,2148.79 728.617,2149.35 720.196,2152.42C715.365,2154.17 711.287,2158.01 707.704,2162.41C700.892,2170.78 696.094,2181.5 693.896,2190.3C692.836,2194.53 693.905,2199.91 693.647,2204.86C693.25,2212.47 691.28,2219.47 687.008,2225.17L681.327,2230.23L677.171,2232.15L673.898,2232.97L673.607,2233.16C668.646,2235.64 655.891,2236.79 645.671,2233.96C642.807,2233.16 640.16,2232.11 637.871,2230.91C637.591,2230.83 637.34,2230.74 637.118,2230.66C631.623,2228.6 627.801,2224.02 626.469,2218.73Z" style="fill:rgb(35,31,32);"/>
            </g>
            <g id="R1" transform="matrix(0.973346,0,0,1.01051,-329.229,-70.4756)">
                <path d="M17250.5,9273.92C17250.6,9276.25 17250.8,9278.56 17251,9280.85C17253.7,9319.58 17253.6,9351.29 17246.6,9379.34L17242.9,9387.82L17239,9392.61L17234.8,9396.11C17228.3,9400.71 17217,9404.47 17202.9,9406C17175.1,9409.02 17134.3,9405.36 17117.5,9402.1C17111.7,9400.99 17107.7,9399.58 17105.8,9398.62L17099.3,9393.87L17095.6,9388.51L17093.5,9380.88C17093.4,9379.83 17093.4,9374.54 17093.4,9365.8C17093.6,9296 17097.4,8977.81 17098.9,8913.62C17099.1,8905.98 17099.4,8901.37 17099.5,8900.37L17100.5,8895.98L17102.8,8891.4C17105.5,8887.16 17109.6,8884.24 17114,8882.83C17117.3,8881.31 17121,8880.63 17124.8,8880.99C17126.4,8880.9 17129.8,8880.74 17131.8,8880.92L17139.8,8882.77L17140.3,8883.07C17156.6,8884.21 17165.4,8880.61 17175.6,8879C17183.8,8877.69 17192.6,8877.06 17204.3,8878.91C17259.2,8870.47 17338.5,8865.11 17409.3,8874.19C17471.7,8882.19 17527.3,8902.04 17557.9,8937.74C17574.8,8957.5 17581.8,8986.66 17577.5,9019C17579.9,9045.19 17576.7,9074.86 17566.5,9102.08C17549.1,9148.16 17512.5,9187.11 17451,9192.54C17441.2,9193.41 17434.7,9195.39 17431.6,9200.25C17429.6,9203.4 17429,9207.15 17429.1,9211.13C17435.4,9219.33 17443.4,9230.29 17454.8,9250.27C17495.8,9321.54 17518.3,9338.17 17543.4,9369.94C17548.1,9375.95 17549.2,9384.07 17546.3,9391.12C17543.3,9398.17 17536.7,9403.05 17529.1,9403.84C17493.9,9407.5 17435.7,9402.46 17427.7,9401.74C17395,9398.84 17380.2,9396.77 17367.4,9386.76C17358.9,9380.16 17351,9369.64 17340.2,9350.74C17326.4,9326.58 17305.7,9294.76 17286.4,9265.43C17277.5,9262.83 17267.8,9261.85 17259,9266.88C17255.9,9268.6 17253.1,9270.93 17250.5,9273.92ZM17480.4,9362.96C17481.1,9362.98 17481.7,9363 17482.4,9363.02C17481.9,9362.48 17481.5,9361.93 17481,9361.39L17480.4,9362.96ZM17354.1,9002.37C17341.4,9003.14 17325.3,9005.2 17303.7,9007C17268.4,9009.92 17244.6,9029.51 17238.7,9054.29C17238.6,9054.74 17238.5,9055.2 17238.4,9055.65C17238.4,9058.76 17238.4,9061.94 17238.4,9065.17C17238.4,9069.04 17238.4,9072.87 17238.4,9076.66C17239.7,9083.39 17242.4,9090.09 17246.4,9096.53C17258.8,9102.52 17265,9103.57 17276.3,9106.76C17333.9,9097.16 17366.6,9090.95 17385.6,9087.07C17396.4,9077.51 17402.5,9064.34 17400,9045.2C17396.4,9017.18 17377.3,9005.99 17354.1,9002.37ZM17251.2,9211.51C17250.4,9214.53 17249,9217.43 17246.8,9219.96C17249.2,9217.12 17250.6,9214.26 17251.2,9211.55C17251.2,9211.54 17251.2,9211.52 17251.2,9211.51Z" style="fill:rgb(35,31,32);"/>
            </g>
            <g id="U1" transform="matrix(2.57998,0,0,2.28631,10840.8,4976.45)">
                <path d="M854.741,2010.29C857.043,2008.12 859.398,2006.45 861.736,2005.16L867.796,2002.64L874.199,2001.52L880.441,2001.8L886.138,2003.23C889.367,2004.37 892.527,2006.07 895.503,2008.27C904.936,2015.26 912.499,2027.99 914.648,2039.45C918.455,2059.75 911.759,2096.34 913.207,2126.62C913.58,2134.42 914.513,2141.7 916.892,2147.77C918.362,2151.52 920.35,2154.76 923.742,2156.64C928.612,2159.35 934.049,2157.04 938.783,2154.11C945.358,2150.05 951.005,2143.74 953.036,2137.64C960.065,2116.55 955.942,2078.06 955.742,2051.85C955.623,2036.26 957.305,2023.92 960.352,2017.82L965.428,2011.54L969.573,2008.92L974.299,2007.19C982.941,2004.87 1001.7,2005.84 1006.04,2007.03L1011.24,2009.19L1015.46,2012.36L1018.98,2016.59L1021.95,2022.63C1023.93,2028.19 1024.7,2036.41 1024.5,2044.89C1024.32,2052.99 1023.08,2061.39 1023.53,2064.77C1025.3,2078.01 1025.87,2127.62 1023.12,2160.64C1021.66,2178.2 1018.29,2191.74 1015.17,2196.56C1007.8,2207.95 1001.6,2213.9 991.725,2222.54C983.618,2229.63 969.084,2235.51 953.923,2237.91C939.347,2240.23 924.462,2239.26 914.636,2235.34C913.127,2235.33 908.704,2235.28 906.407,2235.01L897.288,2232.39C889.074,2228.28 877.891,2225.23 869.331,2222.17C865.826,2220.92 857.667,2214.27 851.621,2205.84C847.712,2200.4 844.464,2194.55 843.238,2191.09L841.915,2183.82C841.915,2165.73 841.519,2115.44 845.186,2100.77C845.647,2098.93 845.388,2094.97 845.271,2089.98C844.875,2073.18 843.006,2048.21 843.234,2034.64C843.316,2029.74 843.73,2025.88 844.277,2023.47L845.565,2019.45L847.878,2015.43L853.124,2010.8L854.741,2010.29Z" style="fill:rgb(35,31,32);"/>
            </g>
            <g id="M1" transform="matrix(2.19037,0,0,2.31952,11275.7,4904.92)">
                <path d="M1104.78,2157.64C1104.29,2175.35 1103.33,2194.45 1101.5,2206.49C1099.8,2217.59 1095.89,2224.8 1093.27,2227.43L1089.06,2230.59L1084.89,2232.3L1077.74,2232.98C1076.7,2232.9 1075.05,2232.59 1073.7,2232.3C1073.07,2232.38 1072.45,2232.44 1071.84,2232.48L1065.93,2232.29L1059.97,2230.8L1054.51,2227.95L1048,2221.58L1045.02,2216.42C1044.31,2214.87 1043.71,2213.21 1043.22,2211.46C1040.91,2203.31 1041.37,2192.65 1042.49,2185.21C1044.42,2172.3 1046.01,2153.37 1042.81,2140.56C1039.05,2125.5 1042,2100.22 1043.48,2084.93C1045.54,2063.69 1041.9,2041.48 1041.9,2021.03C1041.9,2011.53 1049.61,2003.82 1059.11,2003.82C1061.22,2003.82 1063.25,2004.2 1065.12,2004.9L1065.25,2004.84L1069.37,2003.94C1075.3,2003.2 1100.32,2004.34 1106.02,2005.02L1113.33,2007.25C1124.26,2013.32 1130.84,2024.33 1137.12,2036.86C1141.94,2046.48 1146.82,2057.78 1163.39,2060.74C1169.58,2061.85 1174.61,2058.17 1179.11,2053.93C1186.35,2047.1 1192.04,2037.82 1196.28,2030.13C1197.97,2027.07 1199.41,2022.32 1201.34,2018.63C1202.29,2016.81 1203.33,2015.13 1204.42,2013.66L1207.7,2009.97L1213.99,2006.13L1223.71,2004.48C1235.81,2003.82 1263.54,2005.29 1270.46,2006.25L1275.05,2007.28L1279.28,2009.41L1282.14,2011.87L1284.52,2015.09C1286.79,2019.05 1288.3,2024.28 1288.81,2030.19C1289.49,2038 1288.29,2047.63 1288.29,2053.57C1288.29,2064.47 1288.05,2075.44 1288.05,2086.35C1288.05,2103.04 1285.23,2120.48 1286.5,2137.04C1287.18,2145.85 1288.88,2177.18 1287.61,2198.54C1286.85,2211.49 1284.07,2221.6 1281.3,2225.75L1275.09,2232.55L1271.02,2235.18L1266.5,2237.01L1257.33,2237.93L1249.54,2236.11C1238.39,2231.78 1228.32,2218.14 1226.74,2208.1C1223.99,2190.72 1224.46,2172.84 1223.98,2155.02C1223.68,2154.41 1223.36,2153.82 1223.02,2153.26C1221.83,2151.3 1220.26,2149.65 1217.57,2149.65C1216.01,2149.65 1214.63,2150.93 1212.99,2152.02C1210.91,2153.41 1208.85,2155.07 1206.78,2156.88C1204.32,2164.93 1202.12,2172.61 1200.09,2178.92C1197.56,2186.75 1195.03,2192.91 1192.85,2196.47C1192.45,2197.55 1187.75,2210.44 1184.33,2216.11C1183.2,2217.97 1182.01,2219.63 1180.79,2221.03L1177.13,2224.52L1171.6,2227.74L1166.66,2229.07L1157.4,2228.97L1148.79,2226.02L1142.14,2221.14C1140.47,2219.52 1138.92,2217.67 1137.52,2215.63C1132.18,2207.83 1129.28,2196.02 1127.04,2188.16C1124.68,2179.91 1121.6,2164.59 1117.33,2148.89C1116.36,2148.47 1115.33,2148.08 1114.22,2147.73C1113.33,2148.2 1110.69,2149.64 1108.15,2151.32C1107.58,2152.25 1106.99,2153.13 1106.37,2153.96C1105.64,2154.93 1105.08,2156.29 1104.78,2157.64Z" style="fill:rgb(35,31,32);"/>
            </g>
            <g id="A1" transform="matrix(2.29279,0,0,2.28772,11190.6,4985.69)">
                <path d="M1319.88,2232.43C1314.52,2233.39 1308.79,2231.8 1304.64,2227.66L1301.98,2224.24L1300.2,2220.28L1299.3,2212.85C1299.63,2202.96 1310.81,2162.66 1311.4,2155C1313.9,2122.45 1321.38,2090.37 1326.71,2058.38C1327.59,2053.09 1327.93,2040.26 1329.57,2031.51C1330.24,2027.94 1331.14,2024.82 1332.14,2022.41L1334.46,2017.99L1337.27,2014.53C1343.81,2007.99 1351.94,2004.46 1360.9,2002.72C1369.04,2001.14 1378.04,2001.54 1385.57,1999.83C1391.7,1998.44 1418.35,1995.39 1431.34,1996.48C1435.34,1996.81 1438.57,1997.57 1440.78,1998.4L1447.13,2002.17C1460.31,2013.7 1469.7,2036.8 1475.8,2063.97C1483.4,2097.8 1486.92,2138.25 1494.6,2161.28C1496.76,2167.77 1505.02,2188.91 1505.34,2203.07C1505.42,2206.53 1505.11,2209.73 1504.47,2212.55L1501.81,2219.74L1497.26,2225.78L1490.51,2230.37C1480.35,2234.99 1468.37,2233.36 1457.29,2226.14C1447.41,2219.7 1438.29,2208.65 1433.33,2199.2C1431.29,2198.5 1427.08,2197.11 1423.88,2196.41C1414.77,2194.42 1404.64,2193.25 1401.35,2193.55C1387.5,2194.81 1375.23,2200.99 1364.84,2209.7C1362.8,2212.79 1356.59,2222.08 1352.98,2225.97L1349.28,2229.41L1344.76,2232.14L1340.23,2233.51L1335.88,2233.74L1331.62,2232.92L1331.3,2232.77L1331.23,2232.78L1330.34,2232.75L1326.21,2233.33L1321.47,2233.02L1319.88,2232.43ZM1403.75,2080.23C1392.98,2084.55 1382.74,2093.49 1377.11,2104.48C1376.61,2113.18 1376.3,2122.07 1376.05,2130.53C1380.31,2135.68 1389.12,2139.18 1397.99,2141.33C1406.93,2143.49 1416.49,2144.71 1422.27,2140.71C1425.72,2138.32 1427.53,2134.01 1428.77,2129.31C1429.25,2127.5 1429.61,2125.62 1429.86,2123.69C1429.29,2116.42 1428.89,2109.11 1428.42,2101.78C1428.12,2100.62 1427.79,2099.47 1427.42,2098.35C1426.51,2096.12 1425.51,2093.96 1424.42,2091.88C1423.51,2090.14 1422.55,2088.41 1421.51,2086.82C1419.26,2083.95 1416.55,2081.68 1413.02,2081.18C1410.02,2080.75 1406.89,2080.38 1403.75,2080.23Z" style="fill:rgb(35,31,32);"/>
            </g>
            <g id="N1" transform="matrix(2.37907,0,0,2.28207,11105.7,4996.88)">
                <path d="M1519.17,2158.73C1519.24,2155.62 1519.29,2152.52 1519.29,2149.46C1519.29,2106.54 1516.3,2063.71 1516.3,2021.18L1516.91,2015.39L1517.58,2013.49C1518.43,2008.67 1521.31,2004.3 1525.7,2001.69L1527.22,2000.4L1533.04,1997.65L1538.49,1996.48C1542.78,1995.98 1547.61,1996.44 1552.2,1997.75C1552.26,1997.77 1552.32,1997.78 1552.37,1997.8C1556.07,1997.95 1559.81,1998.67 1563.5,1999.93C1575.44,2004.02 1586.36,2014.11 1590.9,2023.18C1597.7,2036.78 1604.66,2053.02 1614.31,2066.67C1618.67,2072.83 1623.58,2078.51 1629.52,2082.74C1630.14,2082.96 1630.76,2083.16 1631.39,2083.35C1633.1,2082.96 1634.78,2082.66 1636.44,2082.43C1639.44,2082 1642.33,2082.02 1645.54,2080.87C1646.59,2078.47 1647.73,2076.14 1648.92,2073.85C1649.77,2066.65 1650.12,2059.34 1650.6,2053.26C1649.64,2047.21 1648.15,2037.11 1648.95,2029.27C1649.31,2025.68 1650.1,2022.4 1651.23,2019.62L1655.78,2012.19L1659.34,2008.98L1664.07,2006.21C1666.88,2004.91 1670.49,2003.78 1674.43,2003.01C1683.92,2001.17 1695.23,2001.83 1700.3,2003.73L1706.74,2007.96L1709.69,2012.01L1711.55,2016.9C1712.88,2022.2 1713.34,2040.84 1713.22,2053.31C1713.58,2058.49 1712.98,2067.4 1712.95,2068.46C1712.59,2081.78 1711.55,2095.85 1709.82,2108.93C1709.66,2118.23 1709.71,2127.61 1709.81,2136.91C1711.28,2153.03 1714.08,2172.01 1714.74,2187.39C1715.38,2202.16 1713.79,2214.43 1710.28,2221.46L1706.16,2226.97L1701.41,2230.27L1695.26,2232.27C1692.23,2232.8 1688.29,2232.47 1685.98,2232.47C1682.62,2232.47 1678.49,2233.3 1674.65,2233.13L1665.1,2231.21L1657.99,2227.08C1652.43,2222.53 1647.58,2216.01 1643.36,2208.63C1640.27,2203.22 1637.52,2197.26 1634.69,2191.97C1631.84,2188.36 1628.94,2184.65 1626.05,2180.86C1625.13,2179.82 1624.31,2178.82 1623.8,2177.99L1623.7,2177.77C1619.37,2172.04 1615.06,2166.16 1610.93,2160.2C1610.77,2160.05 1610.62,2159.9 1610.46,2159.74C1607.02,2156.3 1603.92,2152.24 1599.18,2153.93C1590.31,2157.1 1585.55,2160.08 1582.01,2169.53C1581.87,2169.89 1581.36,2171.3 1580.66,2173.21C1580.81,2183.53 1580.92,2193.18 1580.35,2200.69C1579.49,2211.88 1576.35,2219.93 1572.97,2223.99L1566.71,2229.11L1559.59,2231.93C1553.02,2233.75 1543.6,2234.36 1539.89,2234.36L1533.34,2233.19L1528.24,2230.39L1523.13,2224.7L1520.09,2217.94C1515.89,2204.68 1516.68,2170.96 1518.07,2165.38C1518.53,2163.55 1518.89,2161.3 1519.17,2158.73Z" style="fill:rgb(35,31,32);"/>
            </g>
        </g>
    </g>
</svg>
