<?xml version="1.0" encoding="UTF-8" standalone="no"?>
<!DOCTYPE svg PUBLIC "-//W3C//DTD SVG 1.1//EN" "http://www.w3.org/Graphics/SVG/1.1/DTD/svg11.dtd">
<svg width="100%" height="100%" viewBox="0 0 3839 1194" version="1.1" xmlns="http://www.w3.org/2000/svg" xmlns:xlink="http://www.w3.org/1999/xlink" xml:space="preserve" xmlns:serif="http://www.serif.com/" style="fill-rule:evenodd;clip-rule:evenodd;stroke-linejoin:round;stroke-miterlimit:2;">
    <g transform="matrix(1,0,0,1,-15123.5,-9860.89)">
        <g id="Bulgarian---text-w-hand" serif:id="Bulgarian - text w/hand" transform="matrix(1,0,0,1,2630.53,152.822)">
            <g id="h" transform="matrix(0.973287,0,0,1.00394,340.036,-30.3692)">
                <path d="M12971.6,9733.55C12971.9,9778.87 12965.8,9995.34 12965.2,10017.3C12962.7,10107.2 12967.1,10162.4 12960.8,10191.6C12956.4,10212.2 12947.1,10223.8 12933.6,10229.8C12922.8,10234.6 12912.1,10236.6 12901.9,10236.9C12865.7,10245.6 12846.7,10240 12836.6,10234.9C12829.5,10231.3 12825.5,10227.3 12823.3,10225L12820.5,10221.5L12817.9,10216.3C12816.4,10212.4 12814.4,10203.8 12812.8,10191.5C12812.2,10187 12811.6,10181.8 12811.1,10176.1C12810.3,10172.4 12809.5,10167.2 12808.9,10160.5C12807.1,10140.4 12805.3,10101 12805.5,10035.4C12803.5,10029.3 12800.9,10024.6 12797.8,10021C12797.1,10020.4 12796.2,10019.8 12795.3,10019.2C12794.5,10018.6 12793.6,10018.1 12792.8,10017.6C12790.8,10017.7 12788.6,10018.2 12786.2,10019C12782.2,10020.4 12779.8,10020.9 12778.7,10021.2L12774.4,10021.5C12690,10047.8 12592.3,10038.1 12525.2,9980.27C12521.8,9977.31 12518.6,9973.91 12515.7,9970.14L12515,9969.53L12513.8,9967.55C12512.7,9966.04 12511.7,9964.48 12510.7,9962.86C12510,9962.15 12509.3,9961.38 12508.7,9960.55C12505.8,9956.75 12503,9949.97 12500.5,9940.98C12497.8,9933.37 12495.7,9925.14 12494.1,9916.42C12490.8,9898.55 12489.5,9878.48 12489.3,9858.16C12485.8,9800.1 12486.2,9736.58 12487.2,9731.5L12487.3,9731.26C12486.6,9724.79 12488.9,9718.09 12494.1,9713.4C12494.6,9713.02 12495,9712.65 12495.5,9712.31L12497.2,9710.06L12501.9,9706.79L12507.5,9704.82L12513.4,9704.45L12517.5,9705.38C12522.8,9702.86 12528.9,9701.27 12535.9,9700.59C12551.4,9699.08 12573.2,9702.93 12599.6,9704.84C12602.6,9705.06 12605.5,9705.9 12608,9707.23C12608,9707.23 12608.1,9707.24 12608.1,9707.24C12618.7,9707.99 12627.1,9716.52 12627.6,9727.11C12628.7,9748.3 12627.2,9782.06 12633,9814.85C12637.5,9840.03 12646.1,9865.01 12666.5,9880.48C12679.8,9890.58 12698.1,9896.21 12722.7,9895.99C12754.7,9895.71 12773.9,9872.33 12786.8,9845.45C12799.2,9819.49 12806,9789.74 12809.7,9766.39C12811.1,9743.75 12812.9,9733.02 12814.7,9727.26C12814.7,9726.92 12814.8,9726.64 12814.8,9726.41C12815.7,9721.96 12818,9718.04 12821.2,9715.1C12825.4,9710.09 12831.8,9707.25 12838.6,9707.68C12841,9707.84 12843.4,9707.97 12845.8,9708.08C12872.5,9704.97 12892.3,9704.32 12907.2,9704.94L12913.1,9703.78C12922.5,9703.31 12938.5,9705.63 12947.8,9707.17C12946.2,9706.33 12944.5,9705.68 12942.7,9705.26L12955.1,9708.08C12959.5,9709.06 12963.2,9711.35 12966.1,9714.49C12970.2,9718.76 12972.4,9724.71 12971.8,9731.01C12971.8,9731.87 12971.7,9732.72 12971.6,9733.55ZM12494.1,9714.1C12493.3,9714.93 12492.5,9715.88 12491.9,9716.96L12494.1,9714.1ZM12512.3,9708.3C12511.6,9708.2 12510.9,9708.13 12510.2,9708.1C12510.9,9708.16 12511.5,9708.25 12512.2,9708.37C12512.2,9708.35 12512.2,9708.33 12512.3,9708.3Z" style="fill:rgb(35,31,32);"/>
            </g>
            <g id="O4" transform="matrix(0.984772,0,0,1.03517,200.218,-338.685)">
                <path d="M13272.9,9706.57C13292.8,9703.39 13314.8,9707.03 13336,9715.11C13345.1,9718.54 13354,9722.75 13362.5,9727.39C13369.9,9729.65 13377.4,9732.21 13384.9,9735.12C13423.5,9750.2 13459.4,9774.63 13477.4,9811.9C13550.2,9962.49 13505.1,10103.7 13416.4,10176.8C13326.1,10251.2 13189.8,10257.8 13080.6,10133.1C13047.4,10095.3 13028.1,10019.2 13035.5,9941.35C13046.7,9824.76 13115.4,9705.79 13272.9,9706.57ZM13247.2,9838.04C13234.9,9843.52 13222.4,9851.56 13209.8,9862.73C13184.4,9885.33 13168.6,9910.55 13159.3,9934.82C13149.2,10004.7 13166.6,10049.4 13198.9,10072.6C13223.6,10090.3 13255.9,10094.6 13287.5,10088.9C13363.3,10075.1 13435.3,10001.6 13395.7,9896.88C13388.5,9877.68 13365.8,9851.94 13334.9,9838.17C13331.5,9837.23 13328.1,9836.44 13324.5,9835.81C13294.8,9830.55 13269.1,9831.83 13247.2,9838.04Z" style="fill:rgb(35,31,32);"/>
            </g>
            <g id="B" transform="matrix(0.996237,0,0,1.01475,52.9871,-138.517)">
                <path d="M13604.6,10237.8C13603,10238.2 13601.4,10238.3 13599.8,10238.3C13588.2,10238.3 13578.8,10228.9 13578.8,10217.3C13578.8,9882.42 13575.9,9752.35 13579,9730.83L13580.4,9724.65L13582.6,9719.91L13588.6,9713.4L13597.2,9709.84L13602.4,9709.57L13603.1,9709.69C13604.2,9709.62 13605.3,9709.63 13606.3,9709.73C13608.2,9709.3 13610.1,9709.11 13612,9709.19C13676.1,9711.82 13792.4,9694.84 13886.6,9709.43C13956.8,9720.32 14014.9,9748.92 14038.6,9808.57C14054.2,9847.91 14053.3,9876.7 14043.4,9897.85C14041.6,9912.28 14036.2,9922.81 14029.8,9930.54C14012.5,9951.36 13973.4,9954.88 13969.3,9955.19C13964.4,9956.41 13959,9956.83 13954,9956.84C13954,9956.88 13954,9956.91 13953.9,9956.94C13952.8,9958.26 13951.9,9959.6 13951.7,9961.12C13951.4,9964 13954.3,9965.96 13957.6,9968.78C13961.6,9969.23 13965.5,9969.73 13969.1,9970.35C13976.5,9971.6 13983.1,9973.26 13989.3,9975.67C14004.2,9978.71 14019.2,9985.53 14028.1,9996.69C14046.8,10020.1 14052.7,10051.4 14051.7,10081.4C14051.5,10087.5 14051,10093.4 14050.3,10099.2C14050.2,10101 14050.1,10102.7 14049.9,10104.4C14050,10105.7 14050.1,10107 14050.2,10108.2C14051.5,10135.8 14045.8,10157.4 14036.3,10174.2C14032.6,10185.2 14026.9,10194.2 14019.5,10200.7C13999.8,10218 13978.5,10226.5 13959,10229.8C13954.1,10231.1 13948.9,10232.2 13943.6,10233C13902.1,10239.7 13849.8,10233.7 13805.5,10234.7C13618.9,10239 13619.2,10239.7 13605.4,10237.9C13605.1,10237.9 13604.8,10237.9 13604.6,10237.8ZM13859,9915.39C13869.1,9912.93 13878.3,9909.53 13885.9,9904.92C13896.7,9898.42 13903.3,9888.94 13900.8,9875.06C13897.2,9855.53 13890,9841.42 13879.7,9831.7C13863.7,9816.61 13841.1,9812.18 13817.2,9811.57C13793.4,9810.95 13768.2,9814.26 13744.7,9818.07C13737.4,9822.75 13731.9,9827.97 13728.1,9834.45C13727.9,9834.81 13727.7,9835.17 13727.5,9835.53C13727.3,9852.76 13727.3,9873.98 13727.6,9899.9C13727.7,9900.63 13727.9,9901.37 13728,9902.11C13728.2,9902.51 13728.4,9902.9 13728.6,9903.3C13729.8,9905.99 13731.6,9908.29 13733.7,9910.32C13736.3,9911.41 13739.3,9912.59 13742.1,9913.38C13747.4,9914.88 13753.4,9916.21 13759.9,9917.31C13770.5,9918.35 13781.7,9919.21 13793.1,9919.71C13807,9918.53 13821.7,9917.85 13836.8,9917.3C13844,9916.66 13851.4,9916.01 13859,9915.39ZM13757.7,10117.6C13780.3,10118.5 13814.2,10118.3 13846,10111.8C13874.7,10106 13902.6,10095.9 13912.8,10072.2C13915.6,10065.6 13916.4,10059.8 13914.4,10054.7C13912.2,10048.8 13907.1,10044.3 13900.7,10040.2C13882.3,10028.4 13854,10022.3 13824.6,10020.5C13793.5,10018.6 13761.1,10021.8 13737.2,10030.4C13735.6,10031.7 13734,10032.9 13732.5,10034.2C13732,10035.9 13731.5,10037.7 13731,10039.6C13731.3,10057.3 13731.5,10072.2 13732.5,10085C13732.6,10085.3 13732.6,10085.6 13732.6,10085.9C13734.1,10091.4 13735.7,10096.4 13737.4,10100.9C13739.6,10104.1 13741.8,10106.8 13744.3,10109.1C13748.3,10112.7 13752.6,10115.4 13757.7,10117.6Z" style="fill:rgb(35,31,32);"/>
            </g>
            <g id="E3" transform="matrix(0.987816,0,0,1.01231,181.856,-109.477)">
                <path d="M14474.2,10090.6C14499,10090.5 14522.9,10091.7 14543.8,10096C14560.4,10099.4 14571.2,10106.6 14578.3,10115.1C14589,10128 14591.6,10144.9 14589,10161.7C14585.4,10184.9 14571.5,10206.8 14568.4,10210.1C14563.5,10215.5 14555.9,10220.4 14545.5,10224.1C14528.9,10229.9 14503.3,10233.1 14473,10234.3C14381.8,10237.8 14244.9,10223.2 14217.3,10227.9C14186.1,10233.2 14166,10227.8 14152.9,10218.9C14138.9,10209.4 14131.4,10195.1 14128.2,10179.3C14124.7,10162.2 14126.9,10143.1 14126.8,10131.4C14125.5,9956.55 14115.8,9934.99 14120.2,9799.02C14116.8,9775.29 14114.4,9758.09 14113.3,9751.57C14109.5,9727.76 14124.4,9709.91 14155.4,9702.6C14197.8,9692.59 14277.3,9702.3 14306.6,9704.66C14358.5,9708.83 14480.8,9695.79 14539,9710.67C14561.2,9716.32 14575.8,9726.78 14582.1,9739.16C14584.1,9743.15 14585.5,9747.47 14586.1,9752.14C14591.2,9764.76 14592.9,9780.59 14588.3,9800.25L14584.5,9809.91L14578.2,9818C14574.2,9821.93 14569,9825.18 14562.6,9827.51C14550.6,9831.85 14532.5,9832.77 14510.8,9831.18C14469.9,9828.19 14413.4,9816.98 14368.2,9822.23C14345,9824.92 14324.7,9831.56 14315.3,9850.8C14308.6,9864.56 14306,9874.24 14310.3,9881.56C14313.5,9886.88 14319.5,9890.08 14326.7,9892.96C14337.3,9897.24 14350.4,9899.92 14364.7,9901.93C14368.5,9902.48 14372.4,9902.97 14376.4,9903.42C14379.3,9903.51 14382.2,9903.61 14385,9903.75C14395.3,9904.25 14405,9905.18 14413.9,9906.76C14435.5,9908.36 14457.1,9909.74 14475.8,9912.42C14483.6,9913.54 14490.1,9918.89 14492.7,9926.31C14503.7,9958.1 14495.7,9987.76 14489.2,9999.73L14482.6,10008.6L14475.7,10013.2C14470.4,10015.4 14460.6,10016.9 14447.5,10016.5C14427.2,10015.9 14395.3,10012.1 14364.7,10013.3C14349.3,10013.9 14334.2,10015.7 14321.6,10020.4C14307.7,10025.7 14297.4,10035.2 14296.7,10052.8C14296.6,10056.1 14295.7,10068.2 14304.7,10078.2C14311.1,10085.5 14321.5,10091.1 14337.8,10093.7C14349.2,10094.3 14361.4,10094.2 14374.1,10093.9C14379,10093.8 14384,10093.6 14389.1,10093.5C14411.1,10090.9 14440.7,10085.4 14474.2,10090.6ZM14242.7,10185.7C14242.7,10185.7 14242.7,10185.7 14242.8,10185.7C14242.7,10185.6 14242.7,10185.5 14242.7,10185.4C14242.7,10185.5 14242.7,10185.6 14242.7,10185.7Z" style="fill:rgb(35,31,32);"/>
            </g>
            <g id="W" transform="matrix(0.941796,0,0,0.989809,864.226,109.764)">
                <path d="M14679.6,10163.7C14672.1,10144.2 14666.4,10121.1 14662.5,10095.5C14653.6,10036.6 14653.7,9964.41 14657.3,9898.82C14655.8,9843.15 14657.5,9792.41 14664.1,9760.48C14665.1,9755.78 14666.2,9751.42 14667.4,9747.41C14667.7,9744.69 14668.1,9742.08 14668.7,9739.62C14670.2,9733.62 14672.5,9728.12 14675.9,9723.42C14676.5,9720.1 14677,9717.69 14677.4,9716.28C14680.3,9706.46 14689.6,9700.3 14699.5,9701.18L14702,9699.71L14709.7,9697.39L14717.8,9697.12C14722.9,9697.61 14729.1,9699.62 14735.9,9704.23C14745.9,9703.61 14752.2,9705.24 14767.7,9713.2C14774.9,9716.87 14779.3,9724.3 14779.1,9732.34C14778.7,9749.21 14778.4,9765.22 14778.1,9780.4C14783.6,9806.6 14786.4,9838.46 14788.7,9873.25C14792.8,9933.53 14795.1,10003.4 14810.3,10066.1C14813.7,10069.3 14817.2,10071.7 14821,10073.5C14833.9,10079.6 14848.3,10077.7 14864.1,10075.6C14874.5,10074.3 14885.4,10072.6 14896.7,10071.6C14901.9,10060.3 14906.2,10047 14909.9,10032.6C14912.6,10022 14915,10010.8 14917.2,9999.35C14917.6,9894.99 14918.6,9829.07 14921,9787.49C14919.8,9769.14 14918.5,9750.11 14917,9730.47C14916.2,9719.26 14924.3,9709.38 14935.5,9708.04C14950.4,9706.26 14961.8,9701.05 14969.5,9700.05L14977.6,9699.95C14980.9,9699.23 14984.3,9698.89 14987.5,9699.18L14995.3,9700.76L15002.9,9704.45L15009.5,9710.08L15014.5,9716.95C15019.8,9726.12 15024.2,9742.87 15022.2,9772.33C15015,9874.2 15022.9,9964.94 15029.5,10037.4C15031.6,10047.2 15033.7,10056.6 15035.7,10064.9C15037.1,10066.3 15038.6,10067.6 15040.2,10069C15041.3,10069.9 15042.4,10070.9 15043.7,10071.8C15055.1,10074.1 15069.8,10074.1 15088.4,10070C15094.3,10068.7 15101.8,10068.8 15110.4,10069.2C15117.4,10069.5 15125.8,10069.9 15135,10067.3C15135.4,10067 15135.9,10066.5 15136.6,10065.9C15137.1,10065 15137.6,10064 15138.1,10063.1C15143,10053.8 15146.9,10044.3 15150.1,10034.5C15152.5,10009.5 15154.2,9985.2 15155.5,9961.87C15158.9,9868.03 15163.2,9755.16 15164.2,9736.33C15164.8,9727.54 15170.7,9720 15179.1,9717.44C15183.4,9716.13 15187,9715.05 15189.9,9714.16L15195.2,9710.84L15202.2,9708.27C15226.3,9702.31 15242.3,9704.99 15253.4,9713.81C15261,9719.91 15267.4,9729.69 15271,9745.42C15279.7,9782.47 15274.6,9867.03 15281.5,10036.5C15282.6,10062.4 15282.1,10085.1 15280.1,10105.1C15280.9,10140.3 15276.4,10175.4 15268,10197.9C15259.9,10220 15246.2,10231.8 15233.5,10234C15191.1,10241.5 15170.4,10242.6 15159.4,10241.5C15159.1,10241.6 15158.7,10241.7 15158.4,10241.7C15097.9,10251.3 15008.9,10243.3 14883.5,10233.9C14849.6,10231.4 14832.3,10235.5 14815.5,10237.5C14805.5,10238.7 14795.6,10239.4 14783.3,10238.2C14766,10240 14744.7,10240.5 14728.5,10237.5C14712.8,10234.6 14701.2,10227.7 14695.4,10219.5C14693.3,10216.5 14688.4,10202.9 14684,10184.1C14682.6,10177.8 14681.1,10170.9 14679.6,10163.7Z" style="fill:rgb(35,31,32);"/>
            </g>
            <g id="K" transform="matrix(0.903404,0,0,0.981989,1478.11,189.542)">
                <path d="M15509.7,10026.7C15510.7,10085.2 15510.6,10139.3 15509.8,10174.7C15509.1,10202.9 15507,10221 15505.7,10224L15501.7,10230.6L15495.3,10235.9C15491.5,10238.3 15484.8,10240.7 15475.8,10242.1C15453,10245.8 15409.1,10244.9 15380.4,10242C15365.6,10240.4 15354.2,10237.9 15349.6,10235.7C15342,10232.2 15337.2,10224.5 15337.4,10216.1C15338,10194.9 15336.4,10195.1 15335.2,9950.19C15334.1,9742.04 15329.2,9742.33 15330.6,9724.32C15331.4,9714.27 15339.2,9706.43 15348.8,9705.14C15350.7,9704.02 15352.9,9703.2 15355.2,9702.76C15396,9695.02 15422.7,9693.45 15440.6,9695.89C15457,9698.15 15467.8,9703.79 15475.4,9710.93C15486.9,9721.76 15491.4,9737.41 15494.5,9756.8C15499,9784.43 15502.3,9825.71 15504.8,9872.39C15508.8,9879.69 15513.8,9886.52 15519.8,9892.27C15547.4,9892.55 15567.7,9888.55 15583.7,9880.59C15606,9869.46 15618.8,9850.66 15632.5,9828.13C15639.2,9817.01 15646,9805.02 15653.6,9792.4C15672.6,9745.28 15691.4,9722.46 15711,9710.54C15724.9,9702.16 15739.6,9698.68 15756.4,9697.36C15775.9,9695.83 15798.9,9697.54 15827.8,9693.56L15829.1,9693.1L15837.1,9693.47C15848.4,9696.16 15855.4,9707.49 15852.7,9718.76C15852.6,9719.12 15852.5,9719.48 15852.4,9719.82C15853,9729.35 15855.3,9772.2 15849.2,9794.79C15844,9814.46 15832.3,9826.83 15816.4,9829.57C15793.7,9833.47 15779.9,9839.46 15770.9,9847.72C15762,9855.85 15758,9865.81 15753.6,9875.92C15744.8,9895.91 15735.3,9916.64 15710.3,9934.77C15700.6,9941.82 15691.6,9947.55 15682.9,9952.24C15679.4,9954.83 15675.6,9957.43 15671.6,9960.06C15667.8,9962.58 15664,9964.84 15660.3,9966.87C15659.5,9967.75 15658.7,9968.63 15657.8,9969.49C15655.4,9972.04 15652.7,9974.53 15650.2,9977.13C15653.7,9979.57 15657.9,9982.87 15663.1,9987.34C15664.5,9988.37 15665.8,9989.41 15667.1,9990.44C15669.7,9992.18 15672.3,9993.98 15674.8,9995.84C15686.2,10001.4 15696.5,10007.1 15710.3,10018.1C15744.1,10045.2 15785.3,10130.2 15798.7,10174.6C15805.2,10187.8 15812,10201.6 15819,10216.1C15822.1,10222.4 15821.8,10229.9 15818.2,10235.9C15814.7,10242 15808.3,10245.9 15801.3,10246.3C15792,10246.8 15792.1,10245.6 15685.2,10245C15683.1,10245 15681.2,10244.7 15679.3,10244.2C15671.8,10243.6 15665,10239.1 15661.8,10232.1C15627.7,10159.5 15634.8,10156.2 15589.6,10090.1C15556.6,10042 15535.5,10021.9 15524.9,10013.2C15518.9,10016.8 15513.9,10021.4 15509.7,10026.7ZM15836.1,9734.74C15838.8,9734.27 15841.4,9733.18 15843.8,9731.42C15842.7,9732.17 15841.5,9732.81 15840.2,9733.33C15838.9,9733.93 15837.5,9734.41 15836.1,9734.74Z" style="fill:rgb(35,31,32);"/>
            </g>
            <g id="A3" transform="matrix(0.97223,0,0,0.987978,455.709,119.972)">
                <path d="M16326.9,10231C16327.5,10236.2 16326,10241.4 16322.9,10245.6C16319.1,10250.8 16313.1,10253.9 16306.6,10254.1C16232.6,10256.1 16196.4,10251 16172.7,10240.6C16148.3,10229.8 16136.5,10213.1 16112.7,10189C16105.3,10181.4 16097,10180.8 16088,10183.3C16078.4,10185.9 16068.2,10191.1 16057.3,10197.3C16005.7,10226.5 15941,10272.5 15859.1,10247.5L15852.5,10244.1L15847.6,10238.9L15844.3,10231.1C15843.8,10228.8 15843.3,10224.1 15843.3,10217.1C15843.2,10175.8 15856.3,10020.8 15883.1,9909.58C15890,9881.09 15898,9855.39 15906.8,9834.66C15908.1,9821.43 15909.5,9811.2 15910.8,9805.01C15911.4,9802.25 15912.1,9800.03 15912.6,9798.36L15915.5,9792.32C15951.9,9736.03 16009,9716.87 16063.9,9712.66C16064.5,9712.61 16065,9712.58 16065.5,9712.54C16075.6,9709.31 16083,9707.4 16086.2,9706.56C16094.6,9704.41 16106.9,9704.24 16120.6,9705.75C16126.3,9706.38 16132.4,9707.29 16138.4,9708.33C16139.9,9708.32 16141.5,9708.31 16143.1,9708.31C16153.1,9708.31 16161.9,9710.32 16169.7,9714.63C16177.3,9716.26 16183.4,9717.6 16186.9,9718.14C16195.1,9719.38 16201.5,9725.21 16203.9,9732.69C16212,9738.86 16219.5,9746.64 16226.1,9756.31C16230.2,9762.26 16237.4,9782.28 16245.2,9811.58C16273,9915.33 16320.1,10146.9 16328,10205.9C16329.1,10214.8 16329.4,10220.9 16329.1,10223.4L16327.7,10229.8L16326.9,10231ZM15906.9,10212C15906.8,10212.2 15906.8,10212.5 15906.8,10212.8C15907,10212.8 15907.2,10212.8 15907.5,10212.8C15907.3,10212.5 15907.1,10212.2 15906.9,10212ZM16078.9,9885.11C16075.7,9888.65 16072,9892.86 16067.9,9897.71C16048.3,9920.89 16019.6,9962.37 16021.8,10019.3C16022,10019.4 16022.3,10019.5 16022.5,10019.6C16061.4,10026.8 16067.4,10020.3 16117,10030.2C16119.7,10030.8 16122.2,10031 16124.4,10030.9C16129,10028.8 16133,10025.7 16136.1,10021.5C16137.1,10020.1 16138,10018.7 16138.7,10017.1C16138.9,10016.5 16139.1,10015.9 16139.3,10015.2C16142.6,10003.3 16142.3,9988.3 16139.8,9972.81C16135.5,9947.06 16124.5,9919.86 16108.7,9901.89C16100.5,9892.67 16091.3,9885.77 16080.6,9885.15C16080,9885.12 16079.5,9885.11 16078.9,9885.11Z" style="fill:rgb(35,31,32);"/>
            </g>
            <g id="P" transform="matrix(0.996619,0,0,1.00458,42.3869,-31.5899)">
                <path d="M12642.1,10713.6C12640.7,10787.6 12639.5,10846.9 12639.4,10847.8C12637.1,10860.3 12631.6,10868.4 12624.6,10874C12618.1,10879.1 12609.7,10882.2 12598.9,10883.1C12581,10884.4 12552.6,10877.7 12514.6,10878.9C12508.9,10879.1 12503.4,10876.9 12499.4,10873C12495.3,10869 12493,10863.6 12493,10857.9C12492.9,10818.6 12492.1,10444.4 12496.3,10366.1C12497,10354.5 12506.9,10345.7 12518.5,10346.3C12518.9,10346.3 12519.3,10346.4 12519.7,10346.4C12522.5,10344.7 12525.8,10343.7 12529.2,10343.6C12546.1,10342.7 12560.4,10343 12572.6,10344.2C12658.2,10339.3 12817.6,10345.9 12829.1,10348.1C12881.2,10357.9 12927.7,10403.2 12950.9,10458.8C12974.3,10514.7 12974,10580.1 12936.5,10628C12905.4,10667.7 12847.7,10696.7 12752.2,10695.1C12744.8,10694.9 12685.1,10701.5 12647.5,10705.1C12645.7,10707.8 12643.9,10710.7 12642.1,10713.6ZM12645.7,10491C12645.4,10515.8 12645,10545.7 12644.5,10577.5C12645.2,10580.5 12646.1,10583.3 12647.1,10585.9C12653.4,10588.1 12660.6,10589.3 12668,10590.2C12711.1,10595.8 12765.1,10583.7 12772.7,10582.1C12795.2,10577.1 12804.8,10558.4 12804.2,10538.9C12803.6,10519.3 12793.5,10498.6 12774.9,10487.2C12750.6,10479.2 12730.4,10474.6 12713.6,10472.3C12686.2,10472.8 12662.6,10482.1 12645.7,10491Z" style="fill:rgb(35,31,32);"/>
            </g>
            <g id="_6" serif:id="6" transform="matrix(1.00894,0,0,1.01457,-122.516,-136.334)">
                <path d="M13609.8,10874.2C13609.4,10874.2 13608.9,10874.2 13608.5,10874.2C13597.4,10873.8 13588.5,10864.8 13588.2,10853.7C13587.1,10808.7 13586.5,10722.3 13587.3,10634.9C13584.9,10544.9 13581.5,10459 13580.9,10442.7C13579.5,10405.6 13582.6,10384.2 13586.4,10372.3C13588.8,10364.8 13591.8,10359.8 13594.5,10356.4L13598.9,10351.9L13604.5,10348.2L13613.7,10345.5L13623.2,10346.3L13629.1,10349.1C13675.2,10348 13873.5,10340.5 13962,10345.5C13979.1,10346.4 13992.5,10348 14000.6,10349.9C14003.8,10350.7 14006.4,10351.6 14008.5,10352.4L14014.9,10356.1C14024.3,10363.1 14044.5,10394.5 14048.1,10420.3C14050.2,10434.8 14047.3,10447.7 14040.1,10456.7L14034.8,10462.2L14028.4,10466.4C14024.4,10468.5 14019.7,10470.2 14014.1,10471C13994.3,10473.9 13884.8,10476.8 13720.6,10475.5C13719.1,10477.5 13717.5,10479.6 13715.9,10481.7C13713.7,10484.7 13711.3,10487.9 13709,10491.3C13708.9,10507 13708.8,10523.7 13708.7,10541C13712,10545.1 13715.6,10549.1 13719.3,10552.9C13762.2,10550.4 13830.9,10550.8 13890.3,10564C13938.4,10574.7 13980.1,10594.4 14001.5,10624.9C14047.5,10690.5 14058,10764.7 14025.4,10815.3C14003.5,10849.5 13961.7,10874.8 13894.8,10878.8C13893.6,10878.9 13760.3,10877 13694.6,10876.4L13688.9,10878.5C13676,10881 13622.3,10876.6 13617,10876.1C13614.5,10875.9 13612,10875.2 13609.8,10874.2ZM13737.3,10760.5C13737.5,10761 13737.7,10761.5 13737.9,10761.9C13741.9,10769.7 13750.2,10774 13759.7,10777.4C13760,10777.5 13760.3,10777.6 13760.6,10777.7C13761.7,10777.8 13762.7,10778 13763.7,10778.1C13795.3,10781.8 13831.2,10779.8 13858,10769.3C13871.5,10764 13882.8,10756.9 13887.5,10745.8C13887.6,10744.8 13888.3,10739 13888.1,10733.9C13887.5,10720.2 13882.9,10700.5 13866.4,10684.6C13854.1,10676 13837.8,10672.2 13821,10670.1C13797.6,10667.2 13772.8,10668.3 13752.3,10669.8C13749.3,10671.7 13746.7,10673.8 13744.4,10676.1C13742.6,10678 13741,10679.9 13739.6,10682C13738.9,10715.7 13737.6,10741.4 13737.3,10760.5ZM13806.1,10433.9C13805.5,10433.3 13804.8,10432.7 13804.2,10432.1C13804.2,10432.7 13804.2,10433.3 13804.2,10433.9C13804.8,10433.9 13805.5,10433.9 13806.1,10433.9Z" style="fill:rgb(35,31,32);"/>
            </g>
            <g id="T1" transform="matrix(1.12047,0,0,1.01131,-1166.92,1385.87)">
                <path d="M14223.5,9039.6C14199,9039.4 14183.8,9039.28 14173.8,9038.86C14151,9037.88 14146.6,9034.61 14139.3,9029.31L14132.9,9022.18L14128.5,9011.15C14124.9,8996.89 14122.6,8963.69 14121.5,8936.41C14120.7,8916.69 14120.4,8900.19 14120.4,8897.03L14120.6,8893.37L14122.5,8887.26L14126.5,8881.67C14132.4,8875.8 14140.9,8874.14 14148.2,8876.67C14188.6,8871.81 14268.5,8871.91 14278.8,8871.94C14328.4,8872.07 14327.9,8873.62 14377.6,8875.37C14497.7,8879.58 14497.7,8875.78 14508,8877.52C14524.4,8880.28 14537,8894.77 14540.7,8918.5C14546,8952.55 14534.2,9007.93 14527.4,9020.8L14523.3,9027.4L14517.4,9033.02C14513.7,9035.75 14508.4,9038.53 14499,9040.19C14490.9,9041.6 14477.6,9042.39 14454.5,9042.58C14451.2,9045.62 14447.4,9050.23 14444,9057.42C14441.6,9062.4 14439.5,9067.44 14437.6,9072.49C14437.5,9086.94 14436.7,9102.09 14437.1,9114.54C14437.7,9135.51 14443.5,9329.29 14440.2,9376.71C14439.9,9381.42 14439.1,9385.17 14438,9388.2L14432.8,9397.34L14425.6,9403.39L14418.2,9406.5C14410.3,9408.74 14394.6,9407.51 14363.3,9409.07C14357,9409.38 14352.2,9408.92 14348.5,9408.08L14345.9,9407.26C14336.4,9409.26 14326.8,9408.52 14319,9406.22C14316.5,9405.94 14314.1,9405.56 14311.8,9405.09C14304.4,9404.85 14297,9404.15 14291,9402.52C14283.5,9400.51 14277.3,9397.23 14272.9,9393.17L14267.3,9386.58L14263.6,9378.06C14263.5,9377.55 14262.8,9373.35 14262.7,9365.99C14262.1,9329.39 14261.2,9157.53 14248.3,9066.85C14242.6,9056.85 14234.8,9047.7 14223.5,9039.6ZM14307.1,9357.15C14307,9357.12 14307,9357.1 14306.9,9357.07L14307.1,9357.18L14307.1,9357.15Z" style="fill:rgb(35,31,32);"/>
            </g>
            <g id="_02" serif:id="02" transform="matrix(0.845349,0,0,0.959289,571.189,1217.12)">
                <path d="M16105.3,10013C16093.4,10001.6 16081.2,9988.38 16068.1,9973.13C16053,9955.53 16041.8,9924.49 16036.1,9888.96C16028.1,9839.25 16029.9,9780.82 16040.6,9743.88C16061.4,9671.33 16094.6,9624.56 16131.8,9594.01C16165,9566.7 16201.6,9552.32 16236.4,9544.66C16246.6,9540.68 16256.6,9537.58 16266.5,9535.22C16295.5,9528.25 16323.2,9527.76 16347.9,9530.59C16352.1,9530.2 16356.3,9530.82 16360.1,9532.28C16412.4,9540.8 16448.7,9562.99 16450.5,9564.53C16489,9596.58 16518.2,9631.05 16539.2,9666.46C16572.8,9713.6 16586.8,9761.34 16587.1,9807.01C16596.1,9867.07 16583.5,9890.28 16557.5,9943.56C16552.3,9957.63 16546.4,9971.01 16540.1,9983.42C16534.7,9994.05 16528.9,10004 16522.9,10013.1C16513.2,10029.2 16505.2,10038.5 16499.3,10043.8C16498.1,10044.8 16497,10045.7 16495.9,10046.6C16488.6,10053.9 16481.1,10059.9 16473.7,10064.5C16434.3,10088.9 16382.5,10094.8 16344.8,10095C16339.5,10095.4 16334.4,10095.5 16329.6,10095.1C16327.5,10094.9 16325.5,10094.7 16323.5,10094.5C16300.9,10095.8 16275.4,10095.6 16246.7,10093.7C16231.2,10092.6 16160.5,10089 16105.3,10013ZM16437,9799.93C16436.3,9795.68 16435.3,9791.46 16434.1,9787.31C16423.3,9749.22 16396,9715.65 16356.7,9703.52C16349.8,9701.39 16342.6,9699.96 16335,9699.28C16330.9,9699.99 16326.7,9700.79 16322.5,9701.68C16292.5,9708.05 16259.1,9719.8 16241.2,9747.52C16225,9772.53 16214,9799.81 16209,9826.4C16208.7,9837.6 16209.1,9849.54 16210.6,9862.23C16218.1,9927.95 16288.1,9955.88 16350.1,9938.58C16401.1,9900.99 16430.5,9849.37 16437,9799.93Z" style="fill:rgb(35,31,32);"/>
            </g>
            <g id="A1" transform="matrix(2.29279,0,0,2.28772,12195.6,5791.32)">
                <path d="M1319.88,2232.43C1314.52,2233.39 1308.79,2231.8 1304.64,2227.66L1301.98,2224.24L1300.2,2220.28L1299.3,2212.85C1299.63,2202.96 1310.81,2162.66 1311.4,2155C1313.9,2122.45 1321.38,2090.37 1326.71,2058.38C1327.59,2053.09 1327.93,2040.26 1329.57,2031.51C1330.24,2027.94 1331.14,2024.82 1332.14,2022.41L1334.46,2017.99L1337.27,2014.53C1343.81,2007.99 1351.94,2004.46 1360.9,2002.72C1369.04,2001.14 1378.04,2001.54 1385.57,1999.83C1391.7,1998.44 1418.35,1995.39 1431.34,1996.48C1435.34,1996.81 1438.57,1997.57 1440.78,1998.4L1447.13,2002.17C1460.31,2013.7 1469.7,2036.8 1475.8,2063.97C1483.4,2097.8 1486.92,2138.25 1494.6,2161.28C1496.76,2167.77 1505.02,2188.91 1505.34,2203.07C1505.42,2206.53 1505.11,2209.73 1504.47,2212.55L1501.81,2219.74L1497.26,2225.78L1490.51,2230.37C1480.35,2234.99 1468.37,2233.36 1457.29,2226.14C1447.41,2219.7 1438.29,2208.65 1433.33,2199.2C1431.29,2198.5 1427.08,2197.11 1423.88,2196.41C1414.77,2194.42 1404.64,2193.25 1401.35,2193.55C1387.5,2194.81 1375.23,2200.99 1364.84,2209.7C1362.8,2212.79 1356.59,2222.08 1352.98,2225.97L1349.28,2229.41L1344.76,2232.14L1340.23,2233.51L1335.88,2233.74L1331.62,2232.92L1331.3,2232.77L1331.23,2232.78L1330.34,2232.75L1326.21,2233.33L1321.47,2233.02L1319.88,2232.43ZM1403.75,2080.23C1392.98,2084.55 1382.74,2093.49 1377.11,2104.48C1376.61,2113.18 1376.3,2122.07 1376.05,2130.53C1380.31,2135.68 1389.12,2139.18 1397.99,2141.33C1406.93,2143.49 1416.49,2144.71 1422.27,2140.71C1425.72,2138.32 1427.53,2134.01 1428.77,2129.31C1429.25,2127.5 1429.61,2125.62 1429.86,2123.69C1429.29,2116.42 1428.89,2109.11 1428.42,2101.78C1428.12,2100.62 1427.79,2099.47 1427.42,2098.35C1426.51,2096.12 1425.51,2093.96 1424.42,2091.88C1423.51,2090.14 1422.55,2088.41 1421.51,2086.82C1419.26,2083.95 1416.55,2081.68 1413.02,2081.18C1410.02,2080.75 1406.89,2080.38 1403.75,2080.23Z" style="fill:rgb(35,31,32);"/>
            </g>
            <g id="Hand" transform="matrix(0.471429,0,0,0.46,11372.6,7461.85)">
                <path d="M10050.9,6296.33C10053.7,6296.33 10056.5,6296.58 10059.5,6297.11C10074.9,6299.87 10094.2,6314.71 10106.3,6334.58C10117.6,6353.31 10121.8,6375.28 10116.2,6391.67C10116.6,6394.28 10117.4,6399.2 10117.5,6401.84L10116.9,6408.91L10116.6,6409.84C10117.1,6412.96 10118.1,6419.74 10117.7,6423.27C10115.7,6442.52 10118.2,6461.84 10116.2,6481.02C10112.5,6516.71 10119.9,6553.3 10116,6588.8C10113.2,6614.76 10112.4,6646.43 10116.1,6672.35C10119.5,6696.3 10121.9,6730.01 10118,6753.59C10114.5,6775.11 10111.6,6825.38 10117,6846.95L10125.2,6855.6C10133.9,6852.81 10139.7,6846.2 10143.5,6838.44C10149.6,6826.04 10151.2,6810.77 10150,6797.28C10148.8,6783.03 10153.9,6766.4 10153.9,6751.37C10153.9,6718.38 10144.7,6674.36 10146.3,6643.18C10147.3,6623.27 10145.5,6602.62 10147.3,6582.54C10147.7,6578.37 10148.7,6572.14 10149.2,6565.97C10149.5,6563.16 10149.4,6558.38 10149.4,6557.65C10146.7,6549.22 10145.3,6541.66 10145.3,6533.03C10145.3,6490.01 10151.1,6444.69 10158.3,6402.29C10160.6,6388.58 10163.9,6373.26 10172.6,6361.67L10177.3,6356.78L10183.7,6352.7C10192.1,6348.6 10205.9,6347.5 10205.9,6347.5C10211.4,6347.21 10216.8,6348.83 10221.1,6352.05C10221.1,6352.05 10233.7,6361.55 10238.9,6367.38C10249.7,6379.67 10257,6396.76 10262.7,6411.61C10276.3,6447.59 10279.5,6489.21 10282.6,6527.46C10286.1,6571.1 10282.7,6616.43 10289.9,6659.61C10300.4,6723.5 10301.3,6801.12 10279.8,6862.9C10269.7,6891.8 10242.2,6921.64 10222.8,6941.27L10216.1,6946.66C10213.3,6948.4 10210.3,6949.86 10207,6951.08C10203,6952.58 10198.4,6953.45 10195,6954.89C10166,6967.04 10138.8,6965.5 10108.6,6972.16C10103,6973.39 10097.2,6973.45 10091.3,6972.97C10088.6,6972.75 10085.8,6971.76 10083.2,6972.33C10053.6,6978.88 10020.7,6979.77 9989.39,6984.08C9963.27,6987.67 9938.11,6993.5 9918.38,7010.67C9913.49,7014.92 9907.94,7018.59 9902.34,7022.2C9897.35,7025.4 9892.09,7028.29 9888.46,7032.71C9873.64,7050.76 9872.58,7073.92 9867.02,7095.18C9863.43,7108.92 9872.81,7130.22 9880.34,7142.66C9909.95,7191.59 9959.59,7212.1 10018.1,7204.11C10021.7,7203.61 10024.6,7201.07 10027.6,7198.97C10032.1,7195.91 10036.4,7192.73 10040.7,7190.19C10048.7,7185.42 10058.9,7178.96 10067.8,7171.2C10074.5,7165.43 10080.8,7159.14 10082.8,7151.85C10085.7,7141.94 10090.3,7134.55 10088.6,7123.71C10087.1,7114.32 10080.9,7105.49 10073.1,7097.58C10059.4,7083.72 10040.6,7072.85 10025,7069.14C10018.7,7067.61 10010.4,7065.96 10002.3,7065.98C9997.91,7065.99 9993.34,7065.92 9990.24,7068.51C9978.66,7078.2 9966.96,7088.42 9974.33,7102.52C9974.69,7103.21 9976.03,7105.09 9976.77,7106.11C9981.29,7109.31 9984.35,7113.96 9985.53,7119.08C9985.67,7119.18 9985.81,7119.28 9985.95,7119.38C9986.62,7119.84 9987.05,7120.79 9988,7120.65C9990.42,7120.29 9995.19,7119.6 9997.59,7119.25C9999.76,7117.19 10002.8,7114.38 10004.6,7113.17L10013.1,7109.23L10020.9,7108.37L10028.1,7109.81L10035.9,7114.4L10039.2,7118.03L10042.1,7123.22C10046.5,7134.56 10040.5,7147.21 10028.6,7151.46C10028.6,7151.49 10028.5,7151.51 10028.4,7151.53C10026,7153.69 10023.1,7156.29 10022.3,7156.79C10014.9,7161.2 10003.5,7162.76 9994.98,7164.02C9982.67,7165.83 9972.63,7163.01 9963.66,7157.84C9956.66,7153.81 9950.83,7147.35 9943.92,7143.22C9941.35,7141.68 9931.47,7133.54 9928.19,7128.41L9925.81,7123.75L9924.43,7118.32L9924.48,7117.79C9923.25,7115.7 9921.03,7111.86 9920.27,7110.18C9913.6,7095.28 9918.91,7069.98 9927.84,7058.01C9947.73,7031.37 9980.07,7023.86 10011.3,7016.97C10016.9,7015.72 10022.9,7015.56 10028.9,7015.82C10032.4,7015.97 10036,7016.82 10039.2,7015.97C10073.7,7006.98 10109.8,7006.44 10145.1,7003.69C10175.4,7001.33 10205.2,6997.38 10232.1,6981.28C10262.3,6963.2 10278,6937.91 10289.6,6910.14C10303,6878.07 10311.3,6842.81 10326,6809.15C10332.2,6794.88 10350.9,6771.7 10370.8,6762.75C10380.3,6758.49 10390.1,6756.98 10399.6,6758.55C10409.3,6760.18 10419.1,6764.95 10427.7,6775.19C10436.3,6785.49 10440.4,6797.67 10442,6810.67C10443.7,6823.16 10442.3,6836.58 10445.2,6847.79C10459.5,6902.32 10442.3,6964.66 10432.9,7018.44C10429.8,7036.22 10420.8,7067.74 10409.1,7081.79C10396.9,7096.39 10381.5,7106.89 10366.1,7117.14C10354.3,7124.96 10342.3,7132.53 10333.2,7143.61C10328.8,7149.05 10326.8,7155.89 10324.5,7162.49C10321.9,7169.63 10319.2,7176.69 10315.5,7183.1C10298.2,7212.99 10289.9,7248.45 10279.4,7281.2C10274.8,7295.54 10272.5,7311.22 10269.1,7326.47C10264.8,7345.15 10258.9,7363.18 10247.8,7378.68C10206.2,7436.92 10134.2,7458.12 10063.7,7469.35C9961.3,7485.69 9846.07,7477.91 9750.44,7439.97C9738.2,7435.12 9717.03,7420.37 9707.99,7406.12C9705.98,7402.95 9704.45,7399.77 9703.39,7396.67L9701.67,7388.76L9701.84,7381.91L9700.74,7378.84L9700.81,7372.3L9703.27,7364.99L9707.16,7359.66L9711.43,7356.1L9721.86,7351.64C9741.55,7346.68 9774.98,7352.6 9795.23,7355.58C9843.36,7362.67 9896.75,7371.06 9945.36,7363.72C9947.97,7363.33 9949.81,7361.26 9952.05,7360.08C9955.39,7358.34 9958.82,7356.85 9962.41,7355.82C9974.29,7352.41 9987.97,7345.29 9997.67,7335.57C10004.5,7328.7 10009.8,7320.43 10007,7310.86C10004.2,7300.84 9992.53,7292.54 9980.43,7295.43C9962.48,7299.72 9947.21,7309.66 9928.54,7313.49C9857.54,7328.05 9766.46,7315.65 9712.38,7274.25C9697.39,7262.78 9673.28,7240.44 9664.39,7222.38C9641.68,7176.19 9648.69,7123.55 9640.54,7074.18C9631.37,7018.61 9623.88,6963.88 9623.88,6909.25C9623.88,6882.89 9625.62,6856.55 9629.76,6830.15C9635.1,6796.09 9627.59,6759.24 9633.22,6725.14C9636.62,6704.57 9635.61,6683.21 9635.58,6661.87C9635.54,6637.14 9636.71,6612.46 9644.47,6588.73C9647.44,6579.63 9649.93,6568.31 9654.17,6558.34C9658.25,6548.79 9663.84,6540.33 9671.31,6534.08C9676.45,6529.77 9686.97,6523.59 9693.11,6521.99C9709.52,6517.7 9721.51,6519.66 9730.43,6523.95L9736.89,6527.83L9742.28,6532.57C9746.37,6536.86 9749.67,6542.18 9752.08,6548.41C9755.34,6556.83 9756.97,6567.41 9757.93,6578.55C9758.93,6590.22 9758.93,6602.75 9762.18,6612.11C9765.09,6620.45 9765.7,6629.72 9765.31,6639.21C9764.98,6647.22 9763.27,6655.49 9765.11,6662.56C9768.47,6675.38 9765.53,6690.07 9765.53,6702.98C9765.53,6734.14 9764.04,6767.73 9769.37,6798.34C9772.15,6814.28 9772.52,6829.45 9774.19,6843.81C9775.65,6856.39 9778.16,6868.28 9787.03,6879.22C9790.41,6877.71 9793.7,6875.94 9796.7,6873.29C9802.85,6867.85 9804.66,6858.81 9806.02,6849.73C9808.01,6836.49 9807.66,6822.6 9807.66,6812.05C9807.66,6775.98 9809.38,6740.34 9809.38,6704.18C9809.38,6679.77 9803.09,6652.13 9808.11,6628.13C9811.76,6610.65 9806.62,6592.03 9809.14,6574.41C9811.38,6558.7 9813.54,6523.61 9811.58,6509.81C9809.87,6497.83 9814.86,6475.89 9818.39,6464.08C9826.24,6437.79 9827.38,6410.33 9846.74,6387.17C9850.68,6382.46 9853.52,6376.11 9857.64,6371.28C9860.07,6368.42 9862.78,6365.87 9865.81,6363.71L9873.58,6359.38L9885.25,6356.41C9888.9,6356.02 9892.92,6356.06 9897.41,6356.72C9925.69,6360.88 9938.88,6377.5 9944.38,6399.9C9949.51,6420.76 9944.94,6448.91 9948.1,6468.07C9956.25,6517.46 9941.63,6571.38 9950.74,6620.76C9951.94,6627.26 9951.7,6634.29 9950.96,6641.39C9950.43,6646.36 9948.98,6651.39 9950.13,6655.81C9952.66,6665.47 9954.87,6697.5 9954.12,6720.31C9953.73,6732.18 9952.25,6741.93 9950.51,6746.66C9949.01,6750.73 9950.8,6755.75 9951.25,6760.69C9951.96,6768.65 9951.96,6776.5 9950.13,6783.49C9949.43,6786.17 9950.72,6788.95 9951.14,6791.75C9952,6797.59 9952.41,6803.38 9951.58,6808.93C9949.73,6821.32 9950.59,6835.35 9955.04,6846.74C9957.25,6852.38 9960.06,6857.52 9964.95,6860.02C9968.81,6862 9973.58,6861.68 9979.4,6859.83C9980.54,6856.85 9983.33,6849.5 9984.37,6846.52C9992.2,6824.05 9990.6,6796.3 9990.6,6772.38C9990.6,6700.87 9990.56,6626.16 9983.13,6555.01C9979.23,6517.7 9982.92,6480.18 9977.54,6443.13C9974.1,6419.45 9981.08,6397.12 9983.29,6373.91C9984.86,6357.4 9991.2,6334.59 10004.6,6322.78C10010.6,6317.42 10017.4,6309.16 10025.7,6303.93C10033.2,6299.27 10041.5,6296.33 10050.9,6296.33Z" style="fill:rgb(35,31,32);"/>
            </g>
            <g id="A11" serif:id="A1" transform="matrix(-2.29279,0,0,2.3157,16476.1,5728.82)">
                <path d="M1319.88,2232.43L1321.47,2233.02L1326.21,2233.33L1330.34,2232.75L1331.23,2232.78L1331.3,2232.77L1331.62,2232.92L1335.88,2233.74L1340.23,2233.51L1344.76,2232.14L1349.28,2229.41L1352.98,2225.97C1355.28,2223.49 1358.64,2218.81 1361.3,2214.95C1364.28,2210.62 1368.06,2206.91 1372.44,2204.03C1381.06,2198.37 1390.74,2194.51 1401.35,2193.55C1404.64,2193.25 1406.44,2194.42 1415.55,2196.41C1415.55,2196.41 1415.55,2196.41 1415.54,2196.42C1420.56,2197.52 1425.09,2200.2 1428.47,2204.08C1435.62,2212.24 1449.07,2220.79 1457.29,2226.14C1468.37,2233.36 1480.35,2234.99 1490.51,2230.37L1497.26,2225.78L1501.81,2219.74L1504.47,2212.55C1505.11,2209.73 1505.42,2206.53 1505.34,2203.07C1505.02,2188.91 1496.76,2167.77 1494.6,2161.28C1486.92,2138.25 1483.4,2097.8 1475.8,2063.97C1469.7,2036.8 1467.17,2017.62 1453.99,2006.1L1447.64,2002.34C1445.43,2001.5 1442.2,2000.74 1438.2,2000.4C1425.21,1999.32 1391.7,1998.44 1385.57,1999.83C1378.04,2001.54 1369.04,2001.14 1360.9,2002.72C1351.94,2004.46 1347.24,2007.99 1340.7,2014.53L1337.89,2017.99L1335.57,2022.41C1334.57,2024.82 1333.67,2027.94 1333,2031.51C1331.36,2040.26 1331.02,2053.09 1330.14,2058.38C1324.81,2090.37 1313.9,2122.45 1311.4,2155C1310.81,2162.66 1299.63,2202.96 1299.3,2212.85L1300.2,2220.28L1301.98,2224.24L1304.64,2227.66C1308.79,2231.8 1314.52,2233.39 1319.88,2232.43ZM1406.27,2080.4C1408.56,2080.59 1410.83,2080.87 1413.02,2081.18C1416.43,2081.67 1419.08,2083.8 1421.29,2086.53C1421.43,2086.71 1421.56,2086.89 1421.68,2087.08C1422.66,2088.6 1423.56,2090.23 1424.42,2091.88C1425.49,2093.91 1426.46,2096.03 1427.36,2098.2C1427.4,2098.3 1427.44,2098.4 1427.47,2098.5C1427.54,2098.7 1427.6,2098.89 1427.65,2099.1C1428.08,2100.45 1428.38,2101.85 1428.56,2103.26C1429.42,2109.97 1432.98,2117.35 1433.72,2123.95C1433.77,2124.41 1433.76,2124.87 1433.69,2125.32C1433.44,2127.02 1433.11,2128.68 1432.69,2130.29C1431.45,2135 1429.64,2139.3 1426.19,2141.69C1420.41,2145.69 1410.85,2144.47 1401.91,2142.31C1397.02,2141.12 1390.95,2139.23 1385.76,2136.92C1379.82,2134.19 1376.1,2128.14 1376.34,2121.6C1376.42,2119.3 1376.51,2116.99 1376.61,2114.67C1377.01,2105.61 1380.89,2097.06 1387.45,2090.82C1391.62,2086.87 1396.36,2083.62 1401.28,2081.29C1402.84,2080.57 1404.56,2080.26 1406.27,2080.4Z" style="fill:rgb(35,31,32);"/>
            </g>
        </g>
    </g>
</svg>
